<svg width="40" height="40" viewBox="0 0 40 40" fill="none" xmlns="http://www.w3.org/2000/svg">
<path d="M32.2698 31.9166H34.3978C35.8627 31.9166 37.0507 30.7289 37.0507 29.2637V22.5387C37.0507 21.0735 35.8627 19.8858 34.3978 19.8858H32.9331V10.383C32.9331 8.91777 31.7453 7.72998 30.2801 7.72998H5.89809C4.43291 7.72998 3.24512 8.91777 3.24512 10.383V29.6412C3.24512 30.8979 4.26383 31.9166 5.5205 31.9166H6.73492" stroke="black" stroke-width="3.43" stroke-linecap="round" stroke-linejoin="round"/>
<path d="M32.933 12.5942H3.24707" stroke="black" stroke-width="3.43" stroke-linecap="round" stroke-linejoin="round"/>
<path d="M32.933 19.8853H3.24707" stroke="black" stroke-width="3.43" stroke-linecap="round" stroke-linejoin="round"/>
<path d="M13.2725 12.5942V19.8755" stroke="black" stroke-width="3.43" stroke-linecap="round" stroke-linejoin="round"/>
<path d="M22.7354 12.5942V19.8755" stroke="black" stroke-width="3.43" stroke-linecap="round" stroke-linejoin="round"/>
<path d="M6.71875 31.8798C6.71875 32.8621 7.10894 33.8041 7.8035 34.4986C8.49805 35.1932 9.44006 35.5834 10.4223 35.5834C11.4045 35.5834 12.3466 35.1932 13.0411 34.4986C13.7357 33.8041 14.1259 32.8621 14.1259 31.8798C14.1259 30.8976 13.7357 29.9556 13.0411 29.261C12.3466 28.5665 11.4045 28.1763 10.4223 28.1763C9.44006 28.1763 8.49805 28.5665 7.8035 29.261C7.10894 29.9556 6.71875 30.8976 6.71875 31.8798Z" stroke="black" stroke-width="3.43" stroke-linecap="round" stroke-linejoin="round"/>
<path d="M24.8652 31.8798C24.8652 32.8621 25.2554 33.8041 25.95 34.4986C26.6445 35.1932 27.5865 35.5834 28.5688 35.5834C29.551 35.5834 30.493 35.1932 31.1876 34.4986C31.8821 33.8041 32.2723 32.8621 32.2723 31.8798C32.2723 30.8976 31.8821 29.9556 31.1876 29.261C30.493 28.5665 29.551 28.1763 28.5688 28.1763C27.5865 28.1763 26.6445 28.5665 25.95 29.261C25.2554 29.9556 24.8652 30.8976 24.8652 31.8798Z" stroke="black" stroke-width="3.43" stroke-linecap="round" stroke-linejoin="round"/>
<path d="M14.127 31.8799H19.4816H24.8651" stroke="black" stroke-width="3.43" stroke-linecap="round" stroke-linejoin="round"/>
</svg>
