<svg width="40" height="40" viewBox="0 0 40 40" fill="none" xmlns="http://www.w3.org/2000/svg">
<path d="M20.0383 36.7164C5.5159 36.7164 0.928982 32.2005 3.57411 24.0352H36.5012C39.1462 32.2005 34.5608 36.7164 20.0383 36.7164Z" stroke="black" stroke-width="3.43" stroke-linejoin="round"/>
<path d="M12.6533 12.7808C15.5838 16.5609 16.6209 20.373 17.0365 23.9639" stroke="black" stroke-width="3.43" stroke-linecap="round" stroke-linejoin="round"/>
<path d="M5.05907 24.0181C3.46473 20.636 3.97206 16.7349 6.18186 14.8067C5.84308 14.3363 5.53937 13.8233 5.27938 13.2717C3.42596 9.34001 4.49555 4.94024 7.66838 3.44458C10.8412 1.94892 14.9158 3.92375 16.7692 7.85549C17.0291 8.40704 17.2316 8.9678 17.3789 9.52845C20.0116 9.094 22.9294 10.6558 24.6349 13.4883L25.1306 14.4505" stroke="black" stroke-width="3.43" stroke-linecap="round" stroke-linejoin="round"/>
<path d="M21.7552 23.6847H35.6876C35.9057 22.9011 36.0171 22.0258 36.0171 21.0638C36.0171 16.3945 33.3907 13.7681 28.7214 13.7681C24.0522 13.7681 21.4258 16.3945 21.4258 21.0638C21.4258 22.0258 21.5373 22.9011 21.7552 23.6847Z" stroke="black" stroke-width="3.43" stroke-linecap="round" stroke-linejoin="round"/>
</svg>
