<svg width="40" height="40" viewBox="0 0 40 40" fill="none" xmlns="http://www.w3.org/2000/svg">
<path d="M37.5781 18.8281V29.375H27.0312" stroke="#555C64" stroke-width="3" stroke-linecap="round" stroke-linejoin="round"/>
<path d="M37.5781 29.375L25.1734 16.9703C24.9558 16.7525 24.6973 16.5797 24.4128 16.4619C24.1284 16.344 23.8236 16.2833 23.5156 16.2833C23.2077 16.2833 22.9028 16.344 22.6184 16.4619C22.3339 16.5797 22.0755 16.7525 21.8578 16.9703L16.9703 21.8578C16.7527 22.0756 16.4942 22.2484 16.2098 22.3663C15.9253 22.4841 15.6204 22.5448 15.3125 22.5448C15.0046 22.5448 14.6997 22.4841 14.4152 22.3663C14.1308 22.2484 13.8723 22.0756 13.6547 21.8578L2.42188 10.625" stroke="#555C64" stroke-width="3" stroke-linecap="round" stroke-linejoin="round"/>
</svg>
