<svg width="39" height="37" viewBox="0 0 39 37" fill="none" xmlns="http://www.w3.org/2000/svg">
<g filter="url(#filter0_d_962_10594)">
<path d="M11.9496 33.6252C11.122 33.6252 10.4166 33.3306 9.83329 32.7414C9.24996 32.1522 8.95829 31.4439 8.95829 30.6164C8.95829 29.7889 9.25288 29.0835 9.84204 28.5002C10.4313 27.9168 11.1395 27.6252 11.967 27.6252C12.7945 27.6252 13.5 27.9197 14.0834 28.5089C14.6666 29.0981 14.9584 29.8064 14.9584 30.6339C14.9584 31.4614 14.6638 32.1668 14.0746 32.7502C13.4855 33.3335 12.7771 33.6252 11.9496 33.6252ZM28.6163 33.6252C27.7887 33.6252 27.0834 33.3306 26.5 32.7414C25.9167 32.1522 25.625 31.4439 25.625 30.6164C25.625 29.7889 25.9196 29.0835 26.5088 28.5002C27.098 27.9168 27.8063 27.6252 28.6338 27.6252C29.4613 27.6252 30.1667 27.9197 30.75 28.5089C31.3334 29.0981 31.625 29.8064 31.625 30.6339C31.625 31.4614 31.3304 32.1668 30.7412 32.7502C30.1521 33.3335 29.4438 33.6252 28.6163 33.6252ZM9.79163 6.12516L14.375 15.6252H26.375L31.5834 6.12516H9.79163ZM8.54163 3.62516H33.0863C33.7243 3.62516 34.2097 3.91683 34.5425 4.50016C34.8753 5.0835 34.875 5.66683 34.5417 6.25016L28.9167 16.3752C28.6111 16.9029 28.2145 17.3266 27.7267 17.646C27.2389 17.9654 26.705 18.1252 26.125 18.1252H13.5L11.1667 22.4585H31.625V24.9585H11.5416C10.375 24.9585 9.53471 24.5696 9.02079 23.7918C8.50696 23.0141 8.51388 22.1391 9.04163 21.1668L11.7083 16.2502L5.375 2.8335H2.125V0.333496H7L8.54163 3.62516Z" fill="black"/>
</g>
<defs>
<filter id="filter0_d_962_10594" x="-1.875" y="0.333496" width="40.667" height="41.2915" filterUnits="userSpaceOnUse" color-interpolation-filters="sRGB">
<feFlood flood-opacity="0" result="BackgroundImageFix"/>
<feColorMatrix in="SourceAlpha" type="matrix" values="0 0 0 0 0 0 0 0 0 0 0 0 0 0 0 0 0 0 127 0" result="hardAlpha"/>
<feOffset dy="4"/>
<feGaussianBlur stdDeviation="2"/>
<feComposite in2="hardAlpha" operator="out"/>
<feColorMatrix type="matrix" values="0 0 0 0 0 0 0 0 0 0 0 0 0 0 0 0 0 0 0.25 0"/>
<feBlend mode="normal" in2="BackgroundImageFix" result="effect1_dropShadow_962_10594"/>
<feBlend mode="normal" in="SourceGraphic" in2="effect1_dropShadow_962_10594" result="shape"/>
</filter>
</defs>
</svg>
