<svg width="24" height="38" viewBox="0 0 24 38" fill="none" xmlns="http://www.w3.org/2000/svg">
<path d="M2.83301 37.3332C2.16634 37.3332 1.58301 37.0832 1.08301 36.5832C0.583007 36.0832 0.333008 35.4998 0.333008 34.8332V3.1665C0.333008 2.49984 0.583007 1.9165 1.08301 1.4165C1.58301 0.916504 2.16634 0.666504 2.83301 0.666504H21.1663C21.833 0.666504 22.4163 0.916504 22.9163 1.4165C23.4163 1.9165 23.6663 2.49984 23.6663 3.1665V34.8332C23.6663 35.4998 23.4163 36.0832 22.9163 36.5832C22.4163 37.0832 21.833 37.3332 21.1663 37.3332H2.83301ZM2.83301 31.0832V34.8332H21.1663V31.0832H2.83301ZM12.0072 34.2082C12.3633 34.2082 12.6594 34.0876 12.8955 33.8465C13.1316 33.6057 13.2497 33.3071 13.2497 32.9507C13.2497 32.5946 13.1291 32.2984 12.888 32.0623C12.6472 31.8263 12.3486 31.7082 11.9922 31.7082C11.6361 31.7082 11.3399 31.8288 11.1038 32.0698C10.8678 32.3107 10.7497 32.6093 10.7497 32.9657C10.7497 33.3218 10.8703 33.6179 11.1113 33.854C11.3522 34.0901 11.6508 34.2082 12.0072 34.2082ZM2.83301 28.5832H21.1663V6.9165H2.83301V28.5832ZM2.83301 4.4165H21.1663V3.1665H2.83301V4.4165Z" fill="black"/>
</svg>
