<svg width="40" height="40" viewBox="0 0 40 40" fill="none" xmlns="http://www.w3.org/2000/svg">
<path d="M21.2998 29.2856H26.6058" stroke="#555C64" stroke-width="3.43" stroke-linecap="round" stroke-linejoin="round"/>
<path d="M31.9121 29.2856H37.2181" stroke="#555C64" stroke-width="3.43" stroke-linecap="round" stroke-linejoin="round"/>
<path d="M7.23926 14.5083L22.6265 23.3427" stroke="#555C64" stroke-width="3.43" stroke-linecap="round" stroke-linejoin="round"/>
<path d="M8.72506 14.6943C12.0218 14.6943 14.6943 12.0218 14.6943 8.72506C14.6943 5.42836 12.0218 2.75586 8.72506 2.75586C5.42836 2.75586 2.75586 5.42836 2.75586 8.72506C2.75586 12.0218 5.42836 14.6943 8.72506 14.6943Z" stroke="#555C64" stroke-width="3.43" stroke-linecap="round" stroke-linejoin="round"/>
<path d="M7.23926 25.4922L37.2443 8.19482" stroke="#555C64" stroke-width="3.43" stroke-linecap="round" stroke-linejoin="round"/>
<path d="M8.72506 37.2445C12.0218 37.2445 14.6943 34.5719 14.6943 31.2753C14.6943 27.9788 12.0218 25.3062 8.72506 25.3062C5.42836 25.3062 2.75586 27.9788 2.75586 31.2753C2.75586 34.5719 5.42836 37.2445 8.72506 37.2445Z" stroke="#555C64" stroke-width="3.43" stroke-linecap="round" stroke-linejoin="round"/>
</svg>
