<svg width="21" height="21" viewBox="0 0 21 21" fill="none" xmlns="http://www.w3.org/2000/svg">
<g clip-path="url(#clip0_991_10154)">
<path d="M10.5013 15.9906C9.31738 14.5057 8.62175 13.2046 8.38988 12.0907C8.15975 11.1921 8.24988 10.4738 8.6445 9.93388C9.06188 9.31262 9.684 9.00988 10.5004 9.00988C11.3168 9.00988 11.938 9.31175 12.3554 9.94C12.7456 10.4738 12.8436 11.193 12.6056 12.0969C12.351 13.2326 11.6563 14.5338 10.4951 15.9976L10.5013 15.9906ZM18.9021 16.9881C18.7402 18.0784 17.9974 18.9831 16.9771 19.4233C15.0058 20.2808 13.0545 18.9131 11.3841 17.0572C14.1465 13.6001 14.6566 10.9078 13.471 9.1665C12.7754 8.169 11.7796 7.68338 10.5013 7.68338C7.92525 7.68338 6.50863 9.86213 7.06513 12.3926C7.38888 13.762 8.24813 15.3178 9.6175 17.0581C8.76 18.0075 7.94625 18.6821 7.227 19.0995C6.6705 19.4005 6.13763 19.5877 5.6275 19.6324C3.28338 19.9815 1.44675 17.7074 2.28063 15.3624C2.39613 15.0605 2.62625 14.5049 3.02 13.6465L3.04188 13.6001C4.32288 10.8194 5.87863 7.65888 7.66625 4.1545L7.71263 4.039L8.22013 3.0625C8.61388 2.34325 8.77575 2.02125 9.40225 1.62487C9.705 1.44113 10.076 1.34925 10.4925 1.34925C11.3273 1.34925 11.9783 1.8375 12.2565 2.23038C12.3948 2.4395 12.5584 2.71775 12.7658 3.06425L13.254 4.01713L13.324 4.15625C15.1099 7.65975 16.6674 10.8132 17.9431 13.601L17.9659 13.6229L18.4323 14.6904L18.7105 15.3589C18.9231 15.8952 18.9678 16.4281 18.8969 16.9846L18.9021 16.9881ZM19.9696 14.8969C19.8069 14.3867 19.5278 13.7847 19.1821 13.0646V13.0384C17.5293 9.53312 15.9954 6.38138 14.5385 3.54988L14.4414 3.40725C13.4028 1.27837 12.6599 0 10.5013 0C8.36625 0 7.45975 1.48312 6.53313 3.41075L6.46225 3.55075C5.00188 6.38225 3.46888 9.53837 1.82213 13.0419V13.0883L1.333 14.1557C1.14925 14.5967 1.05563 14.8277 1.03113 14.8969C-0.150125 18.1475 2.285 21 5.23288 21C5.2565 21 5.34838 21 5.46475 20.9764H5.79025C7.3215 20.79 8.9 19.817 10.5013 18.074C12.1016 19.8144 13.6819 20.79 15.2105 20.9764H15.536C15.6524 21 15.7451 21 15.7679 21C18.7166 21.0026 21.1509 18.1466 19.9696 14.8969Z" fill="black"/>
</g>
<defs>
<clipPath id="clip0_991_10154">
<rect width="21" height="21" fill="white"/>
</clipPath>
</defs>
</svg>
