<svg width="20" height="14" viewBox="0 0 20 14" fill="none" xmlns="http://www.w3.org/2000/svg">
<path d="M3 11.375C3 11.8391 3.18437 12.2842 3.51256 12.6124C3.84075 12.9406 4.28587 13.125 4.75 13.125C5.21413 13.125 5.65925 12.9406 5.98744 12.6124C6.31563 12.2842 6.5 11.8391 6.5 11.375C6.5 10.9109 6.31563 10.4658 5.98744 10.1376C5.65925 9.80937 5.21413 9.625 4.75 9.625C4.28587 9.625 3.84075 9.80937 3.51256 10.1376C3.18437 10.4658 3 10.9109 3 11.375ZM13.5 11.375C13.5 11.8391 13.6844 12.2842 14.0126 12.6124C14.3408 12.9406 14.7859 13.125 15.25 13.125C15.7141 13.125 16.1592 12.9406 16.4874 12.6124C16.8156 12.2842 17 11.8391 17 11.375C17 10.9109 16.8156 10.4658 16.4874 10.1376C16.1592 9.80937 15.7141 9.625 15.25 9.625C14.7859 9.625 14.3408 9.80937 14.0126 10.1376C13.6844 10.4658 13.5 10.9109 13.5 11.375Z" stroke="black" stroke-width="1.5" stroke-linecap="round" stroke-linejoin="round"/>
<path d="M3 11.375H1.25V1.75C1.25 1.51794 1.34219 1.29538 1.50628 1.13128C1.67038 0.967187 1.89294 0.875 2.125 0.875H14.375C15.5353 0.875 16.6481 1.52031 17.4686 2.66897C18.2891 3.81763 18.75 5.37555 18.75 7V11.375H17M13.5 11.375H6.5" stroke="black" stroke-width="1.5" stroke-linecap="round" stroke-linejoin="round"/>
<path d="M13.5 0.875L14.8125 7H18.75M1.25 5.25H14.375M5.625 0.875V5.25M10 0.875V5.25" stroke="black" stroke-width="1.5" stroke-linecap="round" stroke-linejoin="round"/>
</svg>
