<svg width="22" height="20" viewBox="0 0 22 20" fill="none" xmlns="http://www.w3.org/2000/svg">
<g filter="url(#filter0_d_962_10710)">
<mask id="path-1-inside-1_962_10710" fill="white">
<path d="M5.795 3.49046e-06C5.057 3.49046e-06 4.4315 0.553503 4.355 1.29375C4.244 2.34975 4.0625 4.2615 4.0625 5.4375C4.0625 6.5475 4.571 7.539 5.36525 8.1915C5.62625 8.406 5.75 8.6415 5.75 8.8395V9.336L5.74925 9.37125C5.7185 9.8205 5.375 14.8365 5.375 15.75C5.375 16.0455 5.4332 16.3381 5.54627 16.611C5.65934 16.884 5.82508 17.1321 6.03401 17.341C6.24294 17.5499 6.49098 17.7157 6.76396 17.8287C7.03694 17.9418 7.32953 18 7.625 18C7.92047 18 8.21306 17.9418 8.48604 17.8287C8.75902 17.7157 9.00706 17.5499 9.21599 17.341C9.42492 17.1321 9.59066 16.884 9.70373 16.611C9.8168 16.3381 9.875 16.0455 9.875 15.75C9.875 14.8365 9.53225 9.8205 9.50075 9.37125L9.5 9.336V8.8395C9.5 8.64075 9.62375 8.406 9.88475 8.1915C10.2924 7.85769 10.6208 7.43743 10.8461 6.96113C11.0714 6.48483 11.188 5.9644 11.1875 5.4375C11.1875 4.2615 11.006 2.34975 10.895 1.29375C10.8575 0.938181 10.6896 0.609123 10.4236 0.37017C10.1576 0.131217 9.81254 -0.000667495 9.455 3.49046e-06C9.11225 3.49046e-06 8.7965 0.118504 8.5475 0.317254C8.28394 0.111673 7.95926 1.51079e-05 7.625 3.49046e-06C7.29074 1.51079e-05 6.96606 0.111673 6.7025 0.317254C6.44498 0.111206 6.12481 -0.00072051 5.795 3.49046e-06ZM7.25 1.5C7.25 1.40055 7.28951 1.30516 7.35983 1.23484C7.43016 1.16451 7.52554 1.125 7.625 1.125C7.72446 1.125 7.81984 1.16451 7.89017 1.23484C7.96049 1.30516 8 1.40055 8 1.5V5.4375C8 5.58669 8.05926 5.72976 8.16475 5.83525C8.27024 5.94074 8.41332 6 8.5625 6C8.71168 6 8.85476 5.94074 8.96025 5.83525C9.06574 5.72976 9.125 5.58669 9.125 5.4375V1.455C9.125 1.36748 9.15977 1.28355 9.22165 1.22166C9.28354 1.15977 9.36748 1.125 9.455 1.125C9.62375 1.125 9.76025 1.25025 9.77675 1.41075C9.88775 2.47575 10.0625 4.32975 10.0625 5.4375C10.063 5.79815 9.98329 6.15439 9.82905 6.48038C9.67481 6.80638 9.44994 7.09396 9.17075 7.32225C8.76725 7.65375 8.375 8.17725 8.375 8.8395V9.336C8.375 9.3735 8.37575 9.408 8.37875 9.4485C8.41175 9.93225 8.75 14.8868 8.75 15.75C8.75 16.0484 8.63147 16.3345 8.4205 16.5455C8.20952 16.7565 7.92337 16.875 7.625 16.875C7.32663 16.875 7.04048 16.7565 6.8295 16.5455C6.61853 16.3345 6.5 16.0484 6.5 15.75C6.5 14.8875 6.8375 9.93225 6.87125 9.4485C6.87425 9.408 6.875 9.3735 6.875 9.336V8.8395C6.875 8.1765 6.48275 7.65375 6.07925 7.32225C5.80006 7.09396 5.57519 6.80638 5.42095 6.48038C5.26671 6.15439 5.18696 5.79815 5.1875 5.4375C5.1875 4.32975 5.36225 2.4765 5.47325 1.41075C5.48181 1.33167 5.5195 1.25861 5.57898 1.20579C5.63845 1.15296 5.71546 1.12417 5.795 1.125C5.88252 1.125 5.96646 1.15977 6.02835 1.22166C6.09023 1.28355 6.125 1.36748 6.125 1.455V5.4375C6.125 5.58669 6.18426 5.72976 6.28975 5.83525C6.39524 5.94074 6.53832 6 6.6875 6C6.83668 6 6.97976 5.94074 7.08525 5.83525C7.19074 5.72976 7.25 5.58669 7.25 5.4375V1.5ZM17.375 1.1295V8.4375C17.375 8.7 17.4455 9.93525 17.5235 11.295L17.528 11.3738C17.633 13.2008 17.75 15.2475 17.75 15.75C17.75 16.0484 17.6315 16.3345 17.4205 16.5455C17.2095 16.7565 16.9234 16.875 16.625 16.875C16.3266 16.875 16.0405 16.7565 15.8295 16.5455C15.6185 16.3345 15.5 16.0484 15.5 15.75C15.5 15.3038 15.5923 13.4978 15.6868 11.775C15.7421 10.7654 15.7991 9.75591 15.8577 8.7465L15.8743 8.4705L15.875 8.4375C15.875 8.28832 15.8157 8.14525 15.7102 8.03976C15.6048 7.93427 15.4617 7.875 15.3125 7.875H13.8125C13.7628 7.875 13.7151 7.85525 13.6799 7.82009C13.6448 7.78492 13.625 7.73723 13.625 7.6875V5.0625C13.625 4.05068 14.0145 3.07769 14.7128 2.34539C15.411 1.61309 16.3643 1.17769 17.375 1.1295ZM14.7162 9L14.6923 9.417C14.657 10.0298 14.6097 10.857 14.5632 11.7135C14.4702 13.4138 14.375 15.264 14.375 15.75C14.375 16.0455 14.4332 16.3381 14.5463 16.611C14.6593 16.884 14.8251 17.1321 15.034 17.341C15.2429 17.5499 15.491 17.7157 15.764 17.8287C16.0369 17.9418 16.3295 18 16.625 18C16.9205 18 17.2131 17.9418 17.486 17.8287C17.759 17.7157 18.0071 17.5499 18.216 17.341C18.4249 17.1321 18.5907 16.884 18.7037 16.611C18.8168 16.3381 18.875 16.0455 18.875 15.75C18.875 15.2093 18.7565 13.1445 18.6545 11.3588L18.6515 11.3093C18.5697 9.885 18.5 8.6625 18.5 8.4375V0.562504C18.5 0.413319 18.4407 0.270245 18.3352 0.164756C18.2298 0.0592666 18.0867 3.49046e-06 17.9375 3.49046e-06H17.5625C16.2198 3.49046e-06 14.9322 0.533373 13.9828 1.48278C13.0334 2.43218 12.5 3.71985 12.5 5.0625V7.6875C12.5 8.412 13.088 9 13.8125 9H14.7162Z"/>
</mask>
<path d="M5.795 3.49046e-06C5.057 3.49046e-06 4.4315 0.553503 4.355 1.29375C4.244 2.34975 4.0625 4.2615 4.0625 5.4375C4.0625 6.5475 4.571 7.539 5.36525 8.1915C5.62625 8.406 5.75 8.6415 5.75 8.8395V9.336L5.74925 9.37125C5.7185 9.8205 5.375 14.8365 5.375 15.75C5.375 16.0455 5.4332 16.3381 5.54627 16.611C5.65934 16.884 5.82508 17.1321 6.03401 17.341C6.24294 17.5499 6.49098 17.7157 6.76396 17.8287C7.03694 17.9418 7.32953 18 7.625 18C7.92047 18 8.21306 17.9418 8.48604 17.8287C8.75902 17.7157 9.00706 17.5499 9.21599 17.341C9.42492 17.1321 9.59066 16.884 9.70373 16.611C9.8168 16.3381 9.875 16.0455 9.875 15.75C9.875 14.8365 9.53225 9.8205 9.50075 9.37125L9.5 9.336V8.8395C9.5 8.64075 9.62375 8.406 9.88475 8.1915C10.2924 7.85769 10.6208 7.43743 10.8461 6.96113C11.0714 6.48483 11.188 5.9644 11.1875 5.4375C11.1875 4.2615 11.006 2.34975 10.895 1.29375C10.8575 0.938181 10.6896 0.609123 10.4236 0.37017C10.1576 0.131217 9.81254 -0.000667495 9.455 3.49046e-06C9.11225 3.49046e-06 8.7965 0.118504 8.5475 0.317254C8.28394 0.111673 7.95926 1.51079e-05 7.625 3.49046e-06C7.29074 1.51079e-05 6.96606 0.111673 6.7025 0.317254C6.44498 0.111206 6.12481 -0.00072051 5.795 3.49046e-06ZM7.25 1.5C7.25 1.40055 7.28951 1.30516 7.35983 1.23484C7.43016 1.16451 7.52554 1.125 7.625 1.125C7.72446 1.125 7.81984 1.16451 7.89017 1.23484C7.96049 1.30516 8 1.40055 8 1.5V5.4375C8 5.58669 8.05926 5.72976 8.16475 5.83525C8.27024 5.94074 8.41332 6 8.5625 6C8.71168 6 8.85476 5.94074 8.96025 5.83525C9.06574 5.72976 9.125 5.58669 9.125 5.4375V1.455C9.125 1.36748 9.15977 1.28355 9.22165 1.22166C9.28354 1.15977 9.36748 1.125 9.455 1.125C9.62375 1.125 9.76025 1.25025 9.77675 1.41075C9.88775 2.47575 10.0625 4.32975 10.0625 5.4375C10.063 5.79815 9.98329 6.15439 9.82905 6.48038C9.67481 6.80638 9.44994 7.09396 9.17075 7.32225C8.76725 7.65375 8.375 8.17725 8.375 8.8395V9.336C8.375 9.3735 8.37575 9.408 8.37875 9.4485C8.41175 9.93225 8.75 14.8868 8.75 15.75C8.75 16.0484 8.63147 16.3345 8.4205 16.5455C8.20952 16.7565 7.92337 16.875 7.625 16.875C7.32663 16.875 7.04048 16.7565 6.8295 16.5455C6.61853 16.3345 6.5 16.0484 6.5 15.75C6.5 14.8875 6.8375 9.93225 6.87125 9.4485C6.87425 9.408 6.875 9.3735 6.875 9.336V8.8395C6.875 8.1765 6.48275 7.65375 6.07925 7.32225C5.80006 7.09396 5.57519 6.80638 5.42095 6.48038C5.26671 6.15439 5.18696 5.79815 5.1875 5.4375C5.1875 4.32975 5.36225 2.4765 5.47325 1.41075C5.48181 1.33167 5.5195 1.25861 5.57898 1.20579C5.63845 1.15296 5.71546 1.12417 5.795 1.125C5.88252 1.125 5.96646 1.15977 6.02835 1.22166C6.09023 1.28355 6.125 1.36748 6.125 1.455V5.4375C6.125 5.58669 6.18426 5.72976 6.28975 5.83525C6.39524 5.94074 6.53832 6 6.6875 6C6.83668 6 6.97976 5.94074 7.08525 5.83525C7.19074 5.72976 7.25 5.58669 7.25 5.4375V1.5ZM17.375 1.1295V8.4375C17.375 8.7 17.4455 9.93525 17.5235 11.295L17.528 11.3738C17.633 13.2008 17.75 15.2475 17.75 15.75C17.75 16.0484 17.6315 16.3345 17.4205 16.5455C17.2095 16.7565 16.9234 16.875 16.625 16.875C16.3266 16.875 16.0405 16.7565 15.8295 16.5455C15.6185 16.3345 15.5 16.0484 15.5 15.75C15.5 15.3038 15.5923 13.4978 15.6868 11.775C15.7421 10.7654 15.7991 9.75591 15.8577 8.7465L15.8743 8.4705L15.875 8.4375C15.875 8.28832 15.8157 8.14525 15.7102 8.03976C15.6048 7.93427 15.4617 7.875 15.3125 7.875H13.8125C13.7628 7.875 13.7151 7.85525 13.6799 7.82009C13.6448 7.78492 13.625 7.73723 13.625 7.6875V5.0625C13.625 4.05068 14.0145 3.07769 14.7128 2.34539C15.411 1.61309 16.3643 1.17769 17.375 1.1295ZM14.7162 9L14.6923 9.417C14.657 10.0298 14.6097 10.857 14.5632 11.7135C14.4702 13.4138 14.375 15.264 14.375 15.75C14.375 16.0455 14.4332 16.3381 14.5463 16.611C14.6593 16.884 14.8251 17.1321 15.034 17.341C15.2429 17.5499 15.491 17.7157 15.764 17.8287C16.0369 17.9418 16.3295 18 16.625 18C16.9205 18 17.2131 17.9418 17.486 17.8287C17.759 17.7157 18.0071 17.5499 18.216 17.341C18.4249 17.1321 18.5907 16.884 18.7037 16.611C18.8168 16.3381 18.875 16.0455 18.875 15.75C18.875 15.2093 18.7565 13.1445 18.6545 11.3588L18.6515 11.3093C18.5697 9.885 18.5 8.6625 18.5 8.4375V0.562504C18.5 0.413319 18.4407 0.270245 18.3352 0.164756C18.2298 0.0592666 18.0867 3.49046e-06 17.9375 3.49046e-06H17.5625C16.2198 3.49046e-06 14.9322 0.533373 13.9828 1.48278C13.0334 2.43218 12.5 3.71985 12.5 5.0625V7.6875C12.5 8.412 13.088 9 13.8125 9H14.7162Z" fill="black"/>
<path d="M5.795 3.49046e-06C5.057 3.49046e-06 4.4315 0.553503 4.355 1.29375C4.244 2.34975 4.0625 4.2615 4.0625 5.4375C4.0625 6.5475 4.571 7.539 5.36525 8.1915C5.62625 8.406 5.75 8.6415 5.75 8.8395V9.336L5.74925 9.37125C5.7185 9.8205 5.375 14.8365 5.375 15.75C5.375 16.0455 5.4332 16.3381 5.54627 16.611C5.65934 16.884 5.82508 17.1321 6.03401 17.341C6.24294 17.5499 6.49098 17.7157 6.76396 17.8287C7.03694 17.9418 7.32953 18 7.625 18C7.92047 18 8.21306 17.9418 8.48604 17.8287C8.75902 17.7157 9.00706 17.5499 9.21599 17.341C9.42492 17.1321 9.59066 16.884 9.70373 16.611C9.8168 16.3381 9.875 16.0455 9.875 15.75C9.875 14.8365 9.53225 9.8205 9.50075 9.37125L9.5 9.336V8.8395C9.5 8.64075 9.62375 8.406 9.88475 8.1915C10.2924 7.85769 10.6208 7.43743 10.8461 6.96113C11.0714 6.48483 11.188 5.9644 11.1875 5.4375C11.1875 4.2615 11.006 2.34975 10.895 1.29375C10.8575 0.938181 10.6896 0.609123 10.4236 0.37017C10.1576 0.131217 9.81254 -0.000667495 9.455 3.49046e-06C9.11225 3.49046e-06 8.7965 0.118504 8.5475 0.317254C8.28394 0.111673 7.95926 1.51079e-05 7.625 3.49046e-06C7.29074 1.51079e-05 6.96606 0.111673 6.7025 0.317254C6.44498 0.111206 6.12481 -0.00072051 5.795 3.49046e-06ZM7.25 1.5C7.25 1.40055 7.28951 1.30516 7.35983 1.23484C7.43016 1.16451 7.52554 1.125 7.625 1.125C7.72446 1.125 7.81984 1.16451 7.89017 1.23484C7.96049 1.30516 8 1.40055 8 1.5V5.4375C8 5.58669 8.05926 5.72976 8.16475 5.83525C8.27024 5.94074 8.41332 6 8.5625 6C8.71168 6 8.85476 5.94074 8.96025 5.83525C9.06574 5.72976 9.125 5.58669 9.125 5.4375V1.455C9.125 1.36748 9.15977 1.28355 9.22165 1.22166C9.28354 1.15977 9.36748 1.125 9.455 1.125C9.62375 1.125 9.76025 1.25025 9.77675 1.41075C9.88775 2.47575 10.0625 4.32975 10.0625 5.4375C10.063 5.79815 9.98329 6.15439 9.82905 6.48038C9.67481 6.80638 9.44994 7.09396 9.17075 7.32225C8.76725 7.65375 8.375 8.17725 8.375 8.8395V9.336C8.375 9.3735 8.37575 9.408 8.37875 9.4485C8.41175 9.93225 8.75 14.8868 8.75 15.75C8.75 16.0484 8.63147 16.3345 8.4205 16.5455C8.20952 16.7565 7.92337 16.875 7.625 16.875C7.32663 16.875 7.04048 16.7565 6.8295 16.5455C6.61853 16.3345 6.5 16.0484 6.5 15.75C6.5 14.8875 6.8375 9.93225 6.87125 9.4485C6.87425 9.408 6.875 9.3735 6.875 9.336V8.8395C6.875 8.1765 6.48275 7.65375 6.07925 7.32225C5.80006 7.09396 5.57519 6.80638 5.42095 6.48038C5.26671 6.15439 5.18696 5.79815 5.1875 5.4375C5.1875 4.32975 5.36225 2.4765 5.47325 1.41075C5.48181 1.33167 5.5195 1.25861 5.57898 1.20579C5.63845 1.15296 5.71546 1.12417 5.795 1.125C5.88252 1.125 5.96646 1.15977 6.02835 1.22166C6.09023 1.28355 6.125 1.36748 6.125 1.455V5.4375C6.125 5.58669 6.18426 5.72976 6.28975 5.83525C6.39524 5.94074 6.53832 6 6.6875 6C6.83668 6 6.97976 5.94074 7.08525 5.83525C7.19074 5.72976 7.25 5.58669 7.25 5.4375V1.5ZM17.375 1.1295V8.4375C17.375 8.7 17.4455 9.93525 17.5235 11.295L17.528 11.3738C17.633 13.2008 17.75 15.2475 17.75 15.75C17.75 16.0484 17.6315 16.3345 17.4205 16.5455C17.2095 16.7565 16.9234 16.875 16.625 16.875C16.3266 16.875 16.0405 16.7565 15.8295 16.5455C15.6185 16.3345 15.5 16.0484 15.5 15.75C15.5 15.3038 15.5923 13.4978 15.6868 11.775C15.7421 10.7654 15.7991 9.75591 15.8577 8.7465L15.8743 8.4705L15.875 8.4375C15.875 8.28832 15.8157 8.14525 15.7102 8.03976C15.6048 7.93427 15.4617 7.875 15.3125 7.875H13.8125C13.7628 7.875 13.7151 7.85525 13.6799 7.82009C13.6448 7.78492 13.625 7.73723 13.625 7.6875V5.0625C13.625 4.05068 14.0145 3.07769 14.7128 2.34539C15.411 1.61309 16.3643 1.17769 17.375 1.1295ZM14.7162 9L14.6923 9.417C14.657 10.0298 14.6097 10.857 14.5632 11.7135C14.4702 13.4138 14.375 15.264 14.375 15.75C14.375 16.0455 14.4332 16.3381 14.5463 16.611C14.6593 16.884 14.8251 17.1321 15.034 17.341C15.2429 17.5499 15.491 17.7157 15.764 17.8287C16.0369 17.9418 16.3295 18 16.625 18C16.9205 18 17.2131 17.9418 17.486 17.8287C17.759 17.7157 18.0071 17.5499 18.216 17.341C18.4249 17.1321 18.5907 16.884 18.7037 16.611C18.8168 16.3381 18.875 16.0455 18.875 15.75C18.875 15.2093 18.7565 13.1445 18.6545 11.3588L18.6515 11.3093C18.5697 9.885 18.5 8.6625 18.5 8.4375V0.562504C18.5 0.413319 18.4407 0.270245 18.3352 0.164756C18.2298 0.0592666 18.0867 3.49046e-06 17.9375 3.49046e-06H17.5625C16.2198 3.49046e-06 14.9322 0.533373 13.9828 1.48278C13.0334 2.43218 12.5 3.71985 12.5 5.0625V7.6875C12.5 8.412 13.088 9 13.8125 9H14.7162Z" stroke="black" stroke-width="2" mask="url(#path-1-inside-1_962_10710)"/>
</g>
<defs>
<filter id="filter0_d_962_10710" x="0.0625" y="0" width="22.8125" height="26" filterUnits="userSpaceOnUse" color-interpolation-filters="sRGB">
<feFlood flood-opacity="0" result="BackgroundImageFix"/>
<feColorMatrix in="SourceAlpha" type="matrix" values="0 0 0 0 0 0 0 0 0 0 0 0 0 0 0 0 0 0 127 0" result="hardAlpha"/>
<feOffset dy="4"/>
<feGaussianBlur stdDeviation="2"/>
<feComposite in2="hardAlpha" operator="out"/>
<feColorMatrix type="matrix" values="0 0 0 0 0 0 0 0 0 0 0 0 0 0 0 0 0 0 0.25 0"/>
<feBlend mode="normal" in2="BackgroundImageFix" result="effect1_dropShadow_962_10710"/>
<feBlend mode="normal" in="SourceGraphic" in2="effect1_dropShadow_962_10710" result="shape"/>
</filter>
</defs>
</svg>
