<svg width="811" height="230" viewBox="0 0 811 230" fill="none" xmlns="http://www.w3.org/2000/svg">
<path d="M87.1074 135.764C92.3303 135.637 95.8236 139.147 97.7598 141.741C99.8669 144.565 101.687 148.348 103.359 152.645C106.738 161.334 110.233 174.079 114.098 190.609L115.805 197.911L101.199 201.326L99.4912 194.024C95.6429 177.563 92.3438 165.709 89.378 158.082C88.6324 156.165 87.9506 154.632 87.3438 153.427C86.6869 154.709 85.9481 156.355 85.1367 158.425C82.1247 166.109 78.7662 177.91 74.8389 194.085L73.0694 201.373L58.4932 197.834L60.2627 190.546C64.2054 174.308 67.7595 161.654 71.1709 152.95C72.8601 148.641 74.6823 144.854 76.7588 142.008C78.6417 139.428 82.006 135.888 87.1074 135.764ZM114.654 123.459C118.175 123.573 122.269 124.509 126.67 125.882C135.57 128.659 147.712 133.874 163.044 141.161L169.818 144.381L163.379 157.928L156.606 154.709C141.338 147.453 130.014 142.64 122.202 140.202C120.239 139.59 118.615 139.166 117.294 138.889C117.887 140.202 118.713 141.807 119.825 143.732C123.954 150.878 131.085 160.863 141.28 174.02L145.874 179.948L134.018 189.136L129.424 183.207C119.188 169.999 111.512 159.33 106.836 151.236C104.521 147.228 102.696 143.441 101.767 140.043C100.924 136.962 100.255 132.124 103.339 128.059C106.496 123.897 111.418 123.354 114.654 123.459ZM59.6231 123.679C62.8142 123.542 67.6793 123.966 70.9571 127.877C74.3127 131.881 73.7465 136.801 72.9248 139.933C72.0308 143.34 70.2082 147.122 67.8907 151.108C63.204 159.167 55.4187 169.846 44.9043 183.173L40.2588 189.061L28.4824 179.771L33.128 173.882C43.598 160.611 50.8094 150.64 54.9229 143.567C55.9567 141.789 56.7299 140.3 57.294 139.074C55.8819 139.36 54.1348 139.809 52.0108 140.465C44.1251 142.901 32.8051 147.632 17.71 154.647L10.9082 157.807L4.58692 144.204L11.3887 141.044C26.5429 134.002 38.6525 128.891 47.584 126.132C52.0062 124.766 56.1038 123.829 59.6231 123.679ZM168.226 82.2383L161.485 85.5283C146.293 92.9409 135.469 98.7932 128.693 103.381C126.991 104.534 125.648 105.54 124.608 106.399C126.004 106.755 127.772 107.11 129.971 107.44C138.132 108.668 150.385 109.317 167.028 109.549L174.527 109.653L174.318 124.651L166.819 124.548C150.111 124.315 136.983 123.664 127.739 122.273C123.162 121.585 119.064 120.651 115.828 119.259C112.894 117.997 108.694 115.504 107.439 110.559C106.153 105.495 108.798 101.309 110.898 98.8437C113.182 96.1619 116.466 93.5448 120.283 90.9599C128.003 85.7331 139.651 79.4908 154.907 72.0469L161.648 68.7588L168.226 82.2383ZM19.6211 71.9687C34.5748 79.4267 46.1202 85.7087 53.8457 90.9717C57.6708 93.5774 60.9577 96.1968 63.2696 98.8545C65.3657 101.264 68.0677 105.332 67.0537 110.333C66.0153 115.453 61.8163 118.078 58.8555 119.388C55.634 120.813 51.5405 121.747 46.9795 122.42C37.7565 123.78 24.5535 124.351 7.57812 124.439L0.078125 124.479L0 109.48L7.49902 109.439C24.4031 109.351 36.6949 108.773 44.7901 107.579C46.8248 107.279 48.4711 106.956 49.7813 106.633C48.6773 105.707 47.2369 104.62 45.3994 103.368C38.5784 98.7215 27.8211 92.8204 12.9258 85.3916L6.21485 82.0449L12.9092 68.6221L19.6211 71.9687ZM78.7608 35.3389C82.253 51.68 84.5404 64.6229 85.2422 73.9443C85.5897 78.5596 85.5906 82.763 84.9541 86.2275C84.3769 89.3689 82.8813 94.0185 78.3389 96.3437C73.6883 98.724 69.0177 97.0772 66.1475 95.5791C63.0246 93.9491 59.7427 91.33 56.3731 88.1836C49.5591 81.8207 40.8815 71.8536 30.2285 58.6367L25.5215 52.7978L37.2002 43.3847L41.9073 49.2236C52.5153 62.3849 60.6307 71.635 66.6114 77.2197C68.1144 78.6232 69.3934 79.7085 70.4629 80.5312C70.4985 79.0909 70.4501 77.2873 70.2832 75.0703C69.6635 66.8402 67.5704 54.7511 64.0918 38.4736L62.5244 31.1396L77.1934 28.0049L78.7608 35.3389ZM112.068 31.2617L110.438 38.582C106.761 55.0817 104.589 67.1937 103.951 75.3515C103.791 77.4021 103.74 79.0794 103.764 80.4287C104.912 79.5585 106.292 78.3956 107.921 76.8828C113.969 71.2671 122.116 62.0929 132.674 49.2246L137.431 43.4267L149.027 52.9414L144.271 58.7392C133.672 71.658 124.977 81.5156 118.127 87.876C114.735 91.0252 111.45 93.6472 108.344 95.3096C105.528 96.8168 100.96 98.546 96.3106 96.4443C91.5502 94.2923 89.9268 89.6136 89.3086 86.4355C88.636 82.9778 88.6369 78.7796 88.9961 74.1836C89.7225 64.8891 92.1041 51.8897 95.7959 35.3203L97.4268 28L112.068 31.2617Z" fill="#00DC5A"/>
<path d="M282.648 157.59C292.023 155.767 300.292 151.275 307.453 144.113C316.958 134.608 321.711 123.117 321.711 109.641C321.711 96.1641 316.926 84.6732 307.355 75.168C297.85 65.5977 286.359 60.8125 272.883 60.8125C259.406 60.8125 247.883 65.5977 238.312 75.168C228.807 84.6732 224.055 96.1641 224.055 109.641C224.055 123.117 228.84 134.608 238.41 144.113C245.507 151.275 253.742 155.767 263.117 157.59V109.641H282.648V157.59ZM263.117 178.098C248.599 175.884 235.741 169.178 224.543 157.98C211.197 144.634 204.523 128.521 204.523 109.641C204.523 90.7604 211.197 74.6471 224.543 61.3008C237.889 47.9544 254.003 41.2812 272.883 41.2812C291.763 41.2812 307.876 47.9544 321.223 61.3008C334.569 74.6471 341.242 90.7604 341.242 109.641C341.242 128.521 334.569 144.634 321.223 157.98C310.546 168.658 297.72 175.331 282.746 178L282.648 197.531H263.117V178.098ZM370.539 129.172C370.539 137.245 373.404 144.146 379.133 149.875C384.862 155.604 391.763 158.469 399.836 158.469C407.909 158.469 414.81 155.604 420.539 149.875C426.268 144.146 429.133 137.245 429.133 129.172V80.3438H448.664V129.172C448.664 142.648 443.879 154.172 434.309 163.742C424.803 173.247 413.312 178 399.836 178C386.359 178 374.836 173.247 365.266 163.742C355.76 154.172 351.008 142.648 351.008 129.172V80.3438H370.539V129.172ZM477.961 80.3438V178H458.43V80.3438H477.961ZM458.43 60.8125V41.2812H477.961V60.8125H458.43ZM536.555 158.469C544.628 158.469 551.529 155.604 557.258 149.875C562.987 144.146 565.852 137.245 565.852 129.172C565.852 121.099 562.987 114.198 557.258 108.469C551.529 102.74 544.628 99.875 536.555 99.875C528.482 99.875 521.581 102.74 515.852 108.469C510.122 114.198 507.258 121.099 507.258 129.172C507.258 137.245 510.122 144.146 515.852 149.875C521.581 155.604 528.482 158.469 536.555 158.469ZM487.727 129.172C487.727 115.695 492.479 104.204 501.984 94.6992C511.555 85.1289 523.078 80.3438 536.555 80.3438C550.031 80.3438 561.522 85.1289 571.027 94.6992C580.598 104.204 585.383 115.695 585.383 129.172C585.383 142.648 580.598 154.172 571.027 163.742C561.522 173.247 550.031 178 536.555 178C525.422 178 515.656 174.777 507.258 168.332V217.062H487.727V129.172ZM614.68 129.172C614.68 137.245 617.544 144.146 623.273 149.875C629.003 155.604 635.904 158.469 643.977 158.469C652.049 158.469 658.951 155.604 664.68 149.875C670.409 144.146 673.273 137.245 673.273 129.172V80.3438H692.805V129.172C692.805 142.648 688.02 154.172 678.449 163.742C668.944 173.247 657.453 178 643.977 178C630.5 178 618.977 173.247 609.406 163.742C599.901 154.172 595.148 142.648 595.148 129.172V80.3438H614.68V129.172ZM751.398 119.406C759.471 119.406 766.372 116.542 772.102 110.812C777.831 105.083 780.695 98.1823 780.695 90.1094V80.3438H800.227V90.1094C800.227 103.586 795.474 115.077 785.969 124.582C784.276 126.275 782.551 127.805 780.793 129.172C782.551 130.539 784.276 132.036 785.969 133.664C795.474 143.234 800.227 154.758 800.227 168.234V178H780.695V168.234C780.695 160.161 777.831 153.26 772.102 147.531C766.372 141.802 759.471 138.938 751.398 138.938H722.102V178H702.57V41.2812H722.102V119.406H751.398Z" fill="white"/>
</svg>
