<?xml version="1.0" encoding="UTF-8" standalone="no" ?>
<!DOCTYPE svg PUBLIC "-//W3C//DTD SVG 1.1//EN" "http://www.w3.org/Graphics/SVG/1.1/DTD/svg11.dtd">
<svg xmlns="http://www.w3.org/2000/svg" xmlns:xlink="http://www.w3.org/1999/xlink" version="1.1" width="1080" height="1080" viewBox="0 0 1080 1080" xml:space="preserve">
<desc>Created with Fabric.js 5.2.4</desc>
<defs>
</defs>
<g transform="matrix(1 0 0 1 540 540)" id="b131c8a3-36c2-4d4a-a8ac-f7b3fd26b80e"  >
<rect style="stroke: none; stroke-width: 1; stroke-dasharray: none; stroke-linecap: butt; stroke-dashoffset: 0; stroke-linejoin: miter; stroke-miterlimit: 4; fill: rgb(255,255,255); fill-rule: nonzero; opacity: 1; visibility: hidden;" vector-effect="non-scaling-stroke"  x="-540" y="-540" rx="0" ry="0" width="1080" height="1080" />
</g>
<g transform="matrix(1 0 0 1 540 540)" id="fb6cb1d2-06fa-48c6-9987-fab43f34377c"  >
</g>
<g transform="matrix(1.71 0 0 1.71 540 725.8)"  >
<g style="" vector-effect="non-scaling-stroke"   >
		<g transform="matrix(1 0 0 1 1.5 -108.53)"  >
<path style="stroke: none; stroke-width: 1; stroke-dasharray: none; stroke-linecap: butt; stroke-dashoffset: 0; stroke-linejoin: miter; stroke-miterlimit: 4; fill: rgb(0,220,90); fill-rule: nonzero; opacity: 1;" vector-effect="non-scaling-stroke"  transform=" translate(-303, -298)" d="M 302.463 370.457 C 320.419 370.021 332.429 382.087 339.085 391.004 C 346.329 400.712 352.586 413.717 358.334 428.489 C 369.95 458.359 381.966 502.172 395.253 558.997 L 401.122 584.099 L 350.908 595.838 L 345.037 570.736 C 331.807 514.149 320.466 473.399 310.27 447.179 C 307.706 440.589 305.362 435.319 303.276 431.177 C 301.018 435.584 298.478 441.242 295.688 448.358 C 285.334 474.774 273.788 515.342 260.286 570.946 L 254.203 596 L 204.092 583.834 L 210.175 558.78 C 223.729 502.959 235.948 459.459 247.676 429.537 C 253.483 414.724 259.748 401.706 266.886 391.922 C 273.36 383.053 284.926 370.884 302.463 370.457 Z M 397.165 328.158 C 409.269 328.549 423.344 331.766 438.474 336.486 C 469.071 346.033 510.814 363.96 563.523 389.01 L 586.811 400.08 L 564.675 446.65 L 541.39 435.584 C 488.901 410.64 449.97 394.095 423.114 385.714 C 416.365 383.61 410.782 382.152 406.241 381.2 C 408.279 385.714 411.119 391.231 414.942 397.849 C 429.137 422.414 453.652 456.74 488.701 501.969 L 504.495 522.348 L 463.735 553.933 L 447.942 533.551 C 412.752 488.146 386.363 451.47 370.287 423.645 C 362.329 409.867 356.055 396.848 352.861 385.167 C 349.963 374.576 347.663 357.944 358.265 343.97 C 369.119 329.663 386.04 327.798 397.165 328.158 Z M 207.976 328.913 C 218.947 328.444 235.672 329.901 246.941 343.344 C 258.477 357.109 256.53 374.022 253.706 384.789 C 250.632 396.501 244.366 409.502 236.399 423.205 C 220.287 450.909 193.522 487.62 157.375 533.434 L 141.404 553.675 L 100.919 521.739 L 116.89 501.495 C 152.884 455.873 177.676 421.596 191.817 397.281 C 195.372 391.169 198.03 386.051 199.969 381.836 C 195.114 382.819 189.108 384.363 181.806 386.618 C 154.696 394.992 115.779 411.256 63.8845 435.371 L 40.5008 446.234 L 18.7692 399.471 L 42.1527 388.608 C 94.2508 364.4 135.882 346.83 166.587 337.346 C 181.79 332.65 195.877 329.43 207.976 328.913 Z M 581.338 186.454 L 558.163 197.764 C 505.935 223.246 468.724 243.364 445.429 259.135 C 439.578 263.099 434.961 266.557 431.385 269.512 C 436.184 270.734 442.263 271.954 449.822 273.091 C 477.879 277.311 520.003 279.543 577.219 280.339 L 603 280.698 L 602.281 332.256 L 576.501 331.901 C 519.061 331.102 473.929 328.862 442.149 324.082 C 426.414 321.715 412.326 318.503 401.201 313.719 C 391.114 309.38 376.675 300.812 372.36 283.81 C 367.939 266.403 377.033 252.012 384.252 243.538 C 392.104 234.319 403.394 225.322 416.516 216.436 C 443.057 198.468 483.101 177.009 535.549 151.419 L 558.724 140.116 L 581.338 186.454 Z M 70.4546 151.15 C 121.863 176.789 161.555 198.384 188.114 216.477 C 201.264 225.434 212.564 234.439 220.512 243.575 C 227.718 251.859 237.008 265.843 233.522 283.035 C 229.952 300.636 215.516 309.658 205.337 314.162 C 194.262 319.062 180.189 322.273 164.509 324.586 C 132.802 329.262 87.4116 331.223 29.0526 331.528 L 3.26858 331.662 L 3 280.101 L 28.7806 279.963 C 86.8945 279.659 129.152 277.673 156.982 273.568 C 163.977 272.536 169.637 271.426 174.141 270.315 C 170.346 267.132 165.394 263.395 159.077 259.092 C 135.627 243.118 98.6451 222.832 47.4371 197.294 L 24.3658 185.789 L 47.38 139.646 L 70.4546 151.15 Z M 273.769 25.2287 C 285.775 81.4043 293.638 125.898 296.051 157.942 C 297.246 173.808 297.249 188.258 295.061 200.168 C 293.076 210.967 287.935 226.951 272.319 234.944 C 256.33 243.127 240.274 237.465 230.406 232.315 C 219.67 226.712 208.387 217.708 196.803 206.892 C 173.377 185.018 143.545 150.755 106.921 105.319 L 90.7394 85.247 L 130.889 52.8877 L 147.072 72.96 C 183.54 118.204 211.44 150.003 232.001 169.202 C 237.168 174.026 241.565 177.757 245.242 180.586 C 245.364 175.634 245.198 169.434 244.624 161.813 C 242.494 133.52 235.298 91.9618 223.339 36.005 L 217.95 10.7931 L 268.38 0.0167862 L 273.769 25.2287 Z M 388.274 11.2127 L 382.671 36.3776 C 370.03 93.0983 362.563 134.735 360.369 162.779 C 359.819 169.829 359.644 175.595 359.726 180.233 C 363.673 177.242 368.417 173.244 374.018 168.044 C 394.81 148.739 422.818 117.201 459.115 72.9635 L 475.469 53.0321 L 515.334 85.7406 L 498.984 105.672 C 462.546 150.082 432.654 183.97 409.104 205.835 C 397.443 216.661 386.15 225.674 375.472 231.389 C 365.791 236.57 350.087 242.515 334.103 235.29 C 317.737 227.892 312.156 211.808 310.031 200.883 C 307.719 188.996 307.722 174.564 308.957 158.765 C 311.454 126.813 319.641 82.1252 332.333 25.1649 L 337.94 0 L 388.274 11.2127 Z" stroke-linecap="round" />
</g>
		<g transform="matrix(1 0 0 1 -3.65 318.64)"  >
<path style="stroke: none; stroke-width: 1; stroke-dasharray: none; stroke-linecap: butt; stroke-dashoffset: 0; stroke-linejoin: miter; stroke-miterlimit: 4; fill: rgb(255,255,255); fill-rule: nonzero; opacity: 1;" vector-effect="non-scaling-stroke"  transform=" translate(-297.85, -725.17)" d="M 78.125 753.59 C 87.5 751.767 95.7682 747.275 102.93 740.113 C 112.435 730.608 117.188 719.117 117.188 705.641 C 117.188 692.164 112.402 680.673 102.832 671.168 C 93.3268 661.598 81.8359 656.812 68.3594 656.812 C 54.8828 656.812 43.3594 661.598 33.7891 671.168 C 24.2839 680.673 19.5312 692.164 19.5312 705.641 C 19.5312 719.117 24.3164 730.608 33.8867 740.113 C 40.9831 747.275 49.2188 751.767 58.5938 753.59 L 58.5938 705.641 L 78.125 705.641 L 78.125 753.59 Z M 58.5938 774.098 C 44.0755 771.884 31.2174 765.178 20.0195 753.98 C 6.67318 740.634 0 724.521 0 705.641 C 0 686.76 6.67318 670.647 20.0195 657.301 C 33.3659 643.954 49.4792 637.281 68.3594 637.281 C 87.2396 637.281 103.353 643.954 116.699 657.301 C 130.046 670.647 136.719 686.76 136.719 705.641 C 136.719 724.521 130.046 740.634 116.699 753.98 C 106.022 764.658 93.1966 771.331 78.2227 774 L 78.125 793.531 L 58.5938 793.531 L 58.5938 774.098 Z M 166.016 725.172 C 166.016 733.245 168.88 740.146 174.609 745.875 C 180.339 751.604 187.24 754.469 195.312 754.469 C 203.385 754.469 210.286 751.604 216.016 745.875 C 221.745 740.146 224.609 733.245 224.609 725.172 L 224.609 676.344 L 244.141 676.344 L 244.141 725.172 C 244.141 738.648 239.355 750.172 229.785 759.742 C 220.28 769.247 208.789 774 195.312 774 C 181.836 774 170.312 769.247 160.742 759.742 C 151.237 750.172 146.484 738.648 146.484 725.172 L 146.484 676.344 L 166.016 676.344 L 166.016 725.172 Z M 273.438 676.344 L 273.438 774 L 253.906 774 L 253.906 676.344 L 273.438 676.344 Z M 253.906 656.812 L 253.906 637.281 L 273.438 637.281 L 273.438 656.812 L 253.906 656.812 Z M 332.031 754.469 C 340.104 754.469 347.005 751.604 352.734 745.875 C 358.464 740.146 361.328 733.245 361.328 725.172 C 361.328 717.099 358.464 710.198 352.734 704.469 C 347.005 698.74 340.104 695.875 332.031 695.875 C 323.958 695.875 317.057 698.74 311.328 704.469 C 305.599 710.198 302.734 717.099 302.734 725.172 C 302.734 733.245 305.599 740.146 311.328 745.875 C 317.057 751.604 323.958 754.469 332.031 754.469 Z M 283.203 725.172 C 283.203 711.695 287.956 700.204 297.461 690.699 C 307.031 681.129 318.555 676.344 332.031 676.344 C 345.508 676.344 356.999 681.129 366.504 690.699 C 376.074 700.204 380.859 711.695 380.859 725.172 C 380.859 738.648 376.074 750.172 366.504 759.742 C 356.999 769.247 345.508 774 332.031 774 C 320.898 774 311.133 770.777 302.734 764.332 L 302.734 813.062 L 283.203 813.062 L 283.203 725.172 Z M 410.156 725.172 C 410.156 733.245 413.021 740.146 418.75 745.875 C 424.479 751.604 431.38 754.469 439.453 754.469 C 447.526 754.469 454.427 751.604 460.156 745.875 C 465.885 740.146 468.75 733.245 468.75 725.172 L 468.75 676.344 L 488.281 676.344 L 488.281 725.172 C 488.281 738.648 483.496 750.172 473.926 759.742 C 464.421 769.247 452.93 774 439.453 774 C 425.977 774 414.453 769.247 404.883 759.742 C 395.378 750.172 390.625 738.648 390.625 725.172 L 390.625 676.344 L 410.156 676.344 L 410.156 725.172 Z M 546.875 715.406 C 554.948 715.406 561.849 712.542 567.578 706.812 C 573.307 701.083 576.172 694.182 576.172 686.109 L 576.172 676.344 L 595.703 676.344 L 595.703 686.109 C 595.703 699.586 590.951 711.077 581.445 720.582 C 579.753 722.275 578.027 723.805 576.27 725.172 C 578.027 726.539 579.753 728.036 581.445 729.664 C 590.951 739.234 595.703 750.758 595.703 764.234 L 595.703 774 L 576.172 774 L 576.172 764.234 C 576.172 756.161 573.307 749.26 567.578 743.531 C 561.849 737.802 554.948 734.938 546.875 734.938 L 517.578 734.938 L 517.578 774 L 498.047 774 L 498.047 637.281 L 517.578 637.281 L 517.578 715.406 L 546.875 715.406 Z" stroke-linecap="round" />
</g>
</g>
</g>
</svg>