<svg width="606" height="826" viewBox="0 0 606 826" fill="none" xmlns="http://www.w3.org/2000/svg">
<path d="M302.463 370.457C320.419 370.021 332.429 382.087 339.085 391.004C346.329 400.712 352.586 413.717 358.334 428.489C369.95 458.359 381.966 502.172 395.253 558.997L401.122 584.099L350.908 595.838L345.037 570.736C331.807 514.149 320.466 473.399 310.27 447.179C307.706 440.589 305.362 435.319 303.276 431.177C301.018 435.584 298.478 441.242 295.688 448.358C285.334 474.774 273.788 515.342 260.286 570.946L254.203 596L204.092 583.834L210.175 558.78C223.729 502.959 235.948 459.459 247.676 429.537C253.483 414.724 259.748 401.706 266.886 391.922C273.36 383.053 284.926 370.884 302.463 370.457ZM397.165 328.158C409.269 328.549 423.344 331.766 438.474 336.486C469.071 346.033 510.814 363.96 563.523 389.01L586.811 400.08L564.675 446.65L541.39 435.584C488.901 410.64 449.97 394.095 423.114 385.714C416.365 383.61 410.782 382.152 406.241 381.2C408.279 385.714 411.119 391.231 414.942 397.849C429.137 422.414 453.652 456.74 488.701 501.969L504.495 522.348L463.735 553.933L447.942 533.551C412.752 488.146 386.363 451.47 370.287 423.645C362.329 409.867 356.055 396.848 352.861 385.167C349.963 374.576 347.663 357.944 358.265 343.97C369.119 329.663 386.04 327.798 397.165 328.158ZM207.976 328.913C218.947 328.444 235.672 329.901 246.941 343.344C258.477 357.109 256.53 374.022 253.706 384.789C250.632 396.501 244.366 409.502 236.399 423.205C220.287 450.909 193.522 487.62 157.375 533.434L141.404 553.675L100.919 521.739L116.89 501.495C152.884 455.873 177.676 421.596 191.817 397.281C195.372 391.169 198.03 386.051 199.969 381.836C195.114 382.819 189.108 384.363 181.806 386.618C154.696 394.992 115.779 411.256 63.8845 435.371L40.5008 446.234L18.7692 399.471L42.1527 388.608C94.2508 364.4 135.882 346.83 166.587 337.346C181.79 332.65 195.877 329.43 207.976 328.913ZM581.338 186.454L558.163 197.764C505.935 223.246 468.724 243.364 445.429 259.135C439.578 263.099 434.961 266.557 431.385 269.512C436.184 270.734 442.263 271.954 449.822 273.091C477.879 277.311 520.003 279.543 577.219 280.339L603 280.698L602.281 332.256L576.501 331.901C519.061 331.102 473.929 328.862 442.149 324.082C426.414 321.715 412.326 318.503 401.201 313.719C391.114 309.38 376.675 300.812 372.36 283.81C367.939 266.403 377.033 252.012 384.252 243.538C392.104 234.319 403.394 225.322 416.516 216.436C443.057 198.468 483.101 177.009 535.549 151.419L558.724 140.116L581.338 186.454ZM70.4546 151.15C121.863 176.789 161.555 198.384 188.114 216.477C201.264 225.434 212.564 234.439 220.512 243.575C227.718 251.859 237.008 265.843 233.522 283.035C229.952 300.636 215.516 309.658 205.337 314.162C194.262 319.062 180.189 322.273 164.509 324.586C132.802 329.262 87.4116 331.223 29.0526 331.528L3.26858 331.662L3 280.101L28.7806 279.963C86.8945 279.659 129.152 277.673 156.982 273.568C163.977 272.536 169.637 271.426 174.141 270.315C170.346 267.132 165.394 263.395 159.077 259.092C135.627 243.118 98.6451 222.832 47.4371 197.294L24.3658 185.789L47.38 139.646L70.4546 151.15ZM273.769 25.2287C285.775 81.4043 293.638 125.898 296.051 157.942C297.246 173.808 297.249 188.258 295.061 200.168C293.076 210.967 287.935 226.951 272.319 234.944C256.33 243.127 240.274 237.465 230.406 232.315C219.67 226.712 208.387 217.708 196.803 206.892C173.377 185.018 143.545 150.755 106.921 105.319L90.7394 85.247L130.889 52.8877L147.072 72.96C183.54 118.204 211.44 150.003 232.001 169.202C237.168 174.026 241.565 177.757 245.242 180.586C245.364 175.634 245.198 169.434 244.624 161.813C242.494 133.52 235.298 91.9618 223.339 36.005L217.95 10.7931L268.38 0.0167862L273.769 25.2287ZM388.274 11.2127L382.671 36.3776C370.03 93.0983 362.563 134.735 360.369 162.779C359.819 169.829 359.644 175.595 359.726 180.233C363.673 177.242 368.417 173.244 374.018 168.044C394.81 148.739 422.818 117.201 459.115 72.9635L475.469 53.0321L515.334 85.7406L498.984 105.672C462.546 150.082 432.654 183.97 409.104 205.835C397.443 216.661 386.15 225.674 375.472 231.389C365.791 236.57 350.087 242.515 334.103 235.29C317.737 227.892 312.156 211.808 310.031 200.883C307.719 188.996 307.722 174.564 308.957 158.765C311.454 126.813 319.641 82.1252 332.333 25.1649L337.94 0L388.274 11.2127Z" fill="#00DC5A"/>
<path d="M78.125 753.59C87.5 751.767 95.7682 747.275 102.93 740.113C112.435 730.608 117.188 719.117 117.188 705.641C117.188 692.164 112.402 680.673 102.832 671.168C93.3268 661.598 81.8359 656.812 68.3594 656.812C54.8828 656.812 43.3594 661.598 33.7891 671.168C24.2839 680.673 19.5312 692.164 19.5312 705.641C19.5312 719.117 24.3164 730.608 33.8867 740.113C40.9831 747.275 49.2188 751.767 58.5938 753.59V705.641H78.125V753.59ZM58.5938 774.098C44.0755 771.884 31.2174 765.178 20.0195 753.98C6.67318 740.634 0 724.521 0 705.641C0 686.76 6.67318 670.647 20.0195 657.301C33.3659 643.954 49.4792 637.281 68.3594 637.281C87.2396 637.281 103.353 643.954 116.699 657.301C130.046 670.647 136.719 686.76 136.719 705.641C136.719 724.521 130.046 740.634 116.699 753.98C106.022 764.658 93.1966 771.331 78.2227 774L78.125 793.531H58.5938V774.098ZM166.016 725.172C166.016 733.245 168.88 740.146 174.609 745.875C180.339 751.604 187.24 754.469 195.312 754.469C203.385 754.469 210.286 751.604 216.016 745.875C221.745 740.146 224.609 733.245 224.609 725.172V676.344H244.141V725.172C244.141 738.648 239.355 750.172 229.785 759.742C220.28 769.247 208.789 774 195.312 774C181.836 774 170.312 769.247 160.742 759.742C151.237 750.172 146.484 738.648 146.484 725.172V676.344H166.016V725.172ZM273.438 676.344V774H253.906V676.344H273.438ZM253.906 656.812V637.281H273.438V656.812H253.906ZM332.031 754.469C340.104 754.469 347.005 751.604 352.734 745.875C358.464 740.146 361.328 733.245 361.328 725.172C361.328 717.099 358.464 710.198 352.734 704.469C347.005 698.74 340.104 695.875 332.031 695.875C323.958 695.875 317.057 698.74 311.328 704.469C305.599 710.198 302.734 717.099 302.734 725.172C302.734 733.245 305.599 740.146 311.328 745.875C317.057 751.604 323.958 754.469 332.031 754.469ZM283.203 725.172C283.203 711.695 287.956 700.204 297.461 690.699C307.031 681.129 318.555 676.344 332.031 676.344C345.508 676.344 356.999 681.129 366.504 690.699C376.074 700.204 380.859 711.695 380.859 725.172C380.859 738.648 376.074 750.172 366.504 759.742C356.999 769.247 345.508 774 332.031 774C320.898 774 311.133 770.777 302.734 764.332V813.062H283.203V725.172ZM410.156 725.172C410.156 733.245 413.021 740.146 418.75 745.875C424.479 751.604 431.38 754.469 439.453 754.469C447.526 754.469 454.427 751.604 460.156 745.875C465.885 740.146 468.75 733.245 468.75 725.172V676.344H488.281V725.172C488.281 738.648 483.496 750.172 473.926 759.742C464.421 769.247 452.93 774 439.453 774C425.977 774 414.453 769.247 404.883 759.742C395.378 750.172 390.625 738.648 390.625 725.172V676.344H410.156V725.172ZM546.875 715.406C554.948 715.406 561.849 712.542 567.578 706.812C573.307 701.083 576.172 694.182 576.172 686.109V676.344H595.703V686.109C595.703 699.586 590.951 711.077 581.445 720.582C579.753 722.275 578.027 723.805 576.27 725.172C578.027 726.539 579.753 728.036 581.445 729.664C590.951 739.234 595.703 750.758 595.703 764.234V774H576.172V764.234C576.172 756.161 573.307 749.26 567.578 743.531C561.849 737.802 554.948 734.938 546.875 734.938H517.578V774H498.047V637.281H517.578V715.406H546.875Z" fill="white"/>
</svg>
