<svg width="135" height="80" viewBox="0 0 135 80" fill="none" xmlns="http://www.w3.org/2000/svg">
<g clip-path="url(#clip0_1106_17761)">
<path d="M31.7339 54.4172L29.9141 52.8901L28.387 54.71L30.2069 56.237L31.7339 54.4172Z" fill="#00DC5A"/>
<path d="M29.7145 52.6909L28.1875 50.8711L26.3676 52.3981L27.8947 54.218L29.7145 52.6909Z" fill="#00DC5A"/>
<path d="M28.0257 50.6394L26.8379 48.582L24.7805 49.7699L25.9683 51.8272L28.0257 50.6394Z" fill="#00DC5A"/>
<path d="M26.7188 48.3271L25.9062 46.0947L23.6739 46.9072L24.4864 49.1396L26.7188 48.3271Z" fill="#00DC5A"/>
<path d="M25.8334 45.822L25.4209 43.4824L23.0813 43.8949L23.4939 46.2345L25.8334 45.822Z" fill="#00DC5A"/>
<path d="M25.3965 43.2013V40.8257H23.0208V43.2013H25.3965Z" fill="#00DC5A"/>
<path d="M25.4205 40.5446L25.833 38.2051L23.4934 37.7926L23.0809 40.1321L25.4205 40.5446Z" fill="#00DC5A"/>
<path d="M25.9062 37.9326L26.7188 35.7002L24.4864 34.8877L23.6738 37.1201L25.9062 37.9326Z" fill="#00DC5A"/>
<path d="M26.8385 35.4446L28.0264 33.3872L25.969 32.1994L24.7812 34.2568L26.8385 35.4446Z" fill="#00DC5A"/>
<path d="M28.1878 33.1563L29.7148 31.3364L27.895 29.8094L26.368 31.6292L28.1878 33.1563Z" fill="#00DC5A"/>
<path d="M29.9145 31.1369L31.7344 29.6099L30.2073 27.79L28.3875 29.317L29.9145 31.1369Z" fill="#00DC5A"/>
<path d="M31.9651 29.4481L34.0225 28.2603L32.8346 26.2029L30.7773 27.3907L31.9651 29.4481Z" fill="#00DC5A"/>
<path d="M34.2784 28.1406L36.5107 27.3281L35.6982 25.0957L33.4658 25.9083L34.2784 28.1406Z" fill="#00DC5A"/>
<path d="M36.7835 27.2553L39.123 26.8428L38.7105 24.5032L36.371 24.9157L36.7835 27.2553Z" fill="#00DC5A"/>
<path d="M39.4036 26.8184H41.7793V24.4427H39.4036V26.8184Z" fill="#00DC5A"/>
<path d="M42.0599 26.8424L44.3994 27.2549L44.8119 24.9153L42.4724 24.5028L42.0599 26.8424Z" fill="#00DC5A"/>
<path d="M34.0222 55.7669L31.9648 54.5791L30.777 56.6365L32.8344 57.8243L34.0222 55.7669Z" fill="#00DC5A"/>
<path d="M29.4803 57.5739L27.1973 55.6582L25.2816 57.9413L27.5646 59.857L29.4803 57.5739Z" fill="#00DC5A"/>
<path d="M26.947 55.4081L25.0312 53.125L22.7482 55.0407L24.6639 57.3238L26.947 55.4081Z" fill="#00DC5A"/>
<path d="M24.828 52.8354L23.3379 50.2544L20.7569 51.7446L22.247 54.3256L24.828 52.8354Z" fill="#00DC5A"/>
<path d="M23.1883 49.9339L22.1689 47.1333L19.3684 48.1526L20.3877 50.9532L23.1883 49.9339Z" fill="#00DC5A"/>
<path d="M22.0771 46.7915L21.5596 43.8564L18.6245 44.374L19.1421 47.309L22.0771 46.7915Z" fill="#00DC5A"/>
<path d="M21.5293 43.5038V40.5234H18.549V43.5038H21.5293Z" fill="#00DC5A"/>
<path d="M21.5596 40.1709L22.0771 37.2358L19.1421 36.7183L18.6246 39.6534L21.5596 40.1709Z" fill="#00DC5A"/>
<path d="M22.1691 36.8943L23.1885 34.0938L20.3879 33.0744L19.3686 35.875L22.1691 36.8943Z" fill="#00DC5A"/>
<path d="M23.338 33.7724L24.8281 31.1914L22.2471 29.7012L20.7569 32.2823L23.338 33.7724Z" fill="#00DC5A"/>
<path d="M25.0306 30.9017L26.9463 28.6187L24.6632 26.7029L22.7475 28.986L25.0306 30.9017Z" fill="#00DC5A"/>
<path d="M27.1964 28.3683L29.4795 26.4526L27.5638 24.1696L25.2807 26.0853L27.1964 28.3683Z" fill="#00DC5A"/>
<path d="M29.7696 26.2499L32.3506 24.7598L30.8604 22.1787L28.2794 23.6689L29.7696 26.2499Z" fill="#00DC5A"/>
<path d="M32.6711 24.6101L35.4717 23.5908L34.4524 20.7902L31.6518 21.8096L32.6711 24.6101Z" fill="#00DC5A"/>
<path d="M35.814 23.499L38.749 22.9814L38.2315 20.0464L35.2965 20.5639L35.814 23.499Z" fill="#00DC5A"/>
<path d="M39.1007 22.9502H42.0811V19.9699H39.1007V22.9502Z" fill="#00DC5A"/>
<path d="M42.4341 22.9815L45.3691 23.499L45.8867 20.564L42.9516 20.0465L42.4341 22.9815Z" fill="#00DC5A"/>
<path d="M32.3506 59.2675L29.7695 57.7773L28.2794 60.3584L30.8604 61.8485L32.3506 59.2675Z" fill="#00DC5A"/>
<path d="M26.8062 61.2749L23.9775 58.9014L21.604 61.73L24.4327 64.1036L26.8062 61.2749Z" fill="#00DC5A"/>
<path d="M23.6675 58.5914L21.2939 55.7627L18.4653 58.1362L20.8388 60.9649L23.6675 58.5914Z" fill="#00DC5A"/>
<path d="M19.011 51.8087L17.748 48.3389L14.2782 49.6018L15.5411 53.0717L19.011 51.8087Z" fill="#00DC5A"/>
<path d="M17.6344 47.9153L16.9932 44.2788L13.3567 44.92L13.9979 48.5565L17.6344 47.9153Z" fill="#00DC5A"/>
<path d="M16.9551 43.842V40.1494H13.2625V43.842H16.9551Z" fill="#00DC5A"/>
<path d="M17.7478 35.6525L19.0107 32.1826L15.5409 30.9197L14.2779 34.3896L17.7478 35.6525Z" fill="#00DC5A"/>
<path d="M19.1967 31.7853L21.043 28.5874L17.8451 26.7411L15.9988 29.939L19.1967 31.7853Z" fill="#00DC5A"/>
<path d="M21.2935 28.2281L23.667 25.3994L20.8383 23.0259L18.4648 25.8545L21.2935 28.2281Z" fill="#00DC5A"/>
<path d="M27.1654 22.4644L30.3633 20.6182L28.517 17.4203L25.3191 19.2666L27.1654 22.4644Z" fill="#00DC5A"/>
<path d="M30.7606 20.4329L34.2305 19.1699L32.9675 15.7L29.4977 16.963L30.7606 20.4329Z" fill="#00DC5A"/>
<path d="M34.6536 19.0562L38.29 18.415L37.6488 14.7786L34.0124 15.4198L34.6536 19.0562Z" fill="#00DC5A"/>
<path d="M42.8567 18.4154L46.4932 19.0566L47.1344 15.4202L43.4979 14.779L42.8567 18.4154Z" fill="#00DC5A"/>
<path d="M30.3639 63.3726L27.166 61.5264L25.3197 64.7242L28.5176 66.5705L30.3639 63.3726Z" fill="#00DC5A"/>
<path d="M19.5208 62.6985L16.5625 59.1729L13.0369 62.1312L15.9952 65.6568L19.5208 62.6985Z" fill="#00DC5A"/>
<path d="M13.7157 54.2447L12.1416 49.9199L7.81679 51.494L9.39089 55.8188L13.7157 54.2447Z" fill="#00DC5A"/>
<path d="M11.1543 44.3148V39.7124H6.55193V44.3148H11.1543Z" fill="#00DC5A"/>
<path d="M12.1417 34.1075L13.7158 29.7827L9.39101 28.2086L7.81691 32.5334L12.1417 34.1075Z" fill="#00DC5A"/>
<path d="M16.5612 24.8542L19.5195 21.3286L15.9939 18.3703L13.0356 21.8959L16.5612 24.8542Z" fill="#00DC5A"/>
<path d="M23.8795 17.6703L27.8652 15.3691L25.5641 11.3834L21.5783 13.6846L23.8795 17.6703Z" fill="#00DC5A"/>
<path d="M33.2127 13.4222L37.7451 12.623L36.9459 8.0906L32.4135 8.8898L33.2127 13.4222Z" fill="#00DC5A"/>
<path d="M43.4363 12.6232L47.9688 13.4224L48.7679 8.88992L44.2355 8.09073L43.4363 12.6232Z" fill="#00DC5A"/>
<path d="M27.8657 68.6576L23.8799 66.3564L21.5787 70.3422L25.5645 72.6434L27.8657 68.6576Z" fill="#00DC5A"/>
<path d="M7.30598 57.1615L5.35645 51.8052L0.000149185 53.7547L1.94968 59.111L7.30598 57.1615Z" fill="#00DC5A"/>
<path d="M5.35613 32.222L7.30566 26.8657L1.94937 24.9162L-0.000162535 30.2725L5.35613 32.222Z" fill="#00DC5A"/>
<path d="M19.8937 11.8647L24.8301 9.01465L21.9801 4.07826L17.0437 6.92828L19.8937 11.8647Z" fill="#00DC5A"/>
<path d="M44.1151 5.61322L49.7285 6.60303L50.7183 0.989574L45.1049 -0.000229832L44.1151 5.61322Z" fill="#00DC5A"/>
<path d="M24.8299 75.0131L19.8936 72.1631L17.0435 77.0995L21.9799 79.9495L24.8299 75.0131Z" fill="#00DC5A"/>
<path d="M42.3085 50.5874C43.9789 50.2626 45.4521 49.4622 46.728 48.1862C48.4216 46.4926 49.2684 44.4453 49.2684 42.0441C49.2684 39.6429 48.4158 37.5956 46.7106 35.902C45.017 34.1968 42.9697 33.3442 40.5685 33.3442C38.1673 33.3442 36.1142 34.1968 34.409 35.902C32.7154 37.5956 31.8686 39.6429 31.8686 42.0441C31.8686 44.4453 32.7212 46.4926 34.4264 48.1862C35.6908 49.4622 37.1581 50.2626 38.8285 50.5874V42.0441H42.3085V50.5874ZM38.8285 54.2413C36.2418 53.8469 33.9508 52.6521 31.9557 50.657C29.5777 48.279 28.3887 45.408 28.3887 42.0441C28.3887 38.6801 29.5777 35.8091 31.9557 33.4312C34.3336 31.0532 37.2046 29.8643 40.5685 29.8643C43.9325 29.8643 46.8035 31.0532 49.1814 33.4312C51.5594 35.8091 52.7483 38.6801 52.7483 42.0441C52.7483 45.408 51.5594 48.279 49.1814 50.657C47.279 52.5594 44.9939 53.7483 42.3259 54.2239L42.3085 57.7039H38.8285V54.2413ZM57.9683 45.5241C57.9683 46.9624 58.4787 48.192 59.4996 49.2128C60.5205 50.2336 61.7499 50.744 63.1884 50.744C64.6268 50.744 65.8562 50.2336 66.8772 49.2128C67.8975 48.192 68.4083 46.9624 68.4083 45.5241V36.8241H71.888V45.5241C71.888 47.9252 71.0357 49.9784 69.3306 51.6836C67.6368 53.3771 65.5896 54.2239 63.1884 54.2239C60.7872 54.2239 58.7339 53.3771 57.0287 51.6836C55.3351 49.9784 54.4883 47.9252 54.4883 45.5241V36.8241H57.9683V45.5241ZM77.1079 36.8241V54.2239H73.6282V36.8241H77.1079ZM73.6282 33.3442V29.8643H77.1079V33.3442H73.6282ZM87.5477 50.744C88.9861 50.744 90.2161 50.2336 91.2365 49.2128C92.2574 48.192 92.7676 46.9624 92.7676 45.5241C92.7676 44.0857 92.2574 42.8561 91.2365 41.8353C90.2161 40.8145 88.9861 40.3041 87.5477 40.3041C86.1098 40.3041 84.8798 40.8145 83.8589 41.8353C82.8386 42.8561 82.3278 44.0857 82.3278 45.5241C82.3278 46.9624 82.8386 48.192 83.8589 49.2128C84.8798 50.2336 86.1098 50.744 87.5477 50.744ZM78.8481 45.5241C78.8481 43.1229 79.695 41.0755 81.3882 39.3819C83.0934 37.6768 85.1465 36.8241 87.5477 36.8241C89.9489 36.8241 91.9967 37.6768 93.6899 39.3819C95.3951 41.0755 96.2479 43.1229 96.2479 45.5241C96.2479 47.9252 95.3951 49.9784 93.6899 51.6836C91.9967 53.3771 89.9489 54.2239 87.5477 54.2239C85.5646 54.2239 83.8245 53.6497 82.3278 52.5013V61.184H78.8481V45.5241ZM101.468 45.5241C101.468 46.9624 101.978 48.192 102.999 49.2128C104.02 50.2336 105.249 50.744 106.688 50.744C108.126 50.744 109.356 50.2336 110.376 49.2128C111.397 48.192 111.908 46.9624 111.908 45.5241V36.8241H115.387V45.5241C115.387 47.9252 114.535 49.9784 112.83 51.6836C111.136 53.3771 109.089 54.2239 106.688 54.2239C104.287 54.2239 102.233 53.3771 100.528 51.6836C98.8344 49.9784 97.9881 47.9252 97.9881 45.5241V36.8241H101.468V45.5241ZM125.827 43.7841C127.266 43.7841 128.496 43.2737 129.516 42.2529C130.537 41.2321 131.048 40.0025 131.048 38.5641V36.8241H134.527V38.5641C134.527 40.9653 133.68 43.0126 131.987 44.7062C131.685 45.0078 131.378 45.2804 131.065 45.5241C131.378 45.7676 131.685 46.0344 131.987 46.3244C133.68 48.0296 134.527 50.0828 134.527 52.4839V54.2239H131.048V52.4839C131.048 51.0455 130.537 49.816 129.516 48.7952C128.496 47.7744 127.266 47.264 125.827 47.264H120.607V54.2239H117.128V29.8643H120.607V43.7841H125.827Z" fill="white"/>
</g>
<defs>
<clipPath id="clip0_1106_17761">
<rect width="134.581" height="80" fill="white"/>
</clipPath>
</defs>
</svg>
