<svg width="28" height="28" viewBox="0 0 28 28" fill="none" xmlns="http://www.w3.org/2000/svg">
<path fill-rule="evenodd" clip-rule="evenodd" d="M19.091 10.182C19.091 11.5322 18.5546 12.8271 17.5999 13.7818C16.6452 14.7365 15.3503 15.2729 14.0001 15.2729C12.6499 15.2729 11.355 14.7365 10.4003 13.7818C9.44554 12.8271 8.90918 11.5322 8.90918 10.182C8.90918 8.83178 9.44554 7.53689 10.4003 6.58216C11.355 5.62743 12.6499 5.09106 14.0001 5.09106C15.3503 5.09106 16.6452 5.62743 17.5999 6.58216C18.5546 7.53689 19.091 8.83178 19.091 10.182ZM16.5455 10.182C16.5455 10.8571 16.2774 11.5045 15.8 11.9819C15.3226 12.4592 14.6752 12.7274 14.0001 12.7274C13.325 12.7274 12.6775 12.4592 12.2002 11.9819C11.7228 11.5045 11.4546 10.8571 11.4546 10.182C11.4546 9.50688 11.7228 8.85943 12.2002 8.38207C12.6775 7.9047 13.325 7.63652 14.0001 7.63652C14.6752 7.63652 15.3226 7.9047 15.8 8.38207C16.2774 8.85943 16.5455 9.50688 16.5455 10.182Z" fill="#F8F8F8"/>
<path fill-rule="evenodd" clip-rule="evenodd" d="M14 0C6.26818 0 0 6.26818 0 14C0 21.7318 6.26818 28 14 28C21.7318 28 28 21.7318 28 14C28 6.26818 21.7318 0 14 0ZM2.54545 14C2.54545 16.66 3.45291 19.1087 4.97382 21.0535C6.0422 19.6511 7.4202 18.5145 9.00027 17.7326C10.5803 16.9506 12.3197 16.5443 14.0827 16.5455C15.823 16.5434 17.5408 16.9388 19.1051 17.7016C20.6693 18.4643 22.0388 19.5742 23.1089 20.9465C24.2117 19.5002 24.9542 17.8121 25.275 16.0218C25.5958 14.2316 25.4856 12.3907 24.9537 10.6514C24.4218 8.91219 23.4834 7.32461 22.2161 6.02005C20.9488 4.71549 19.389 3.73146 17.6659 3.14937C15.9428 2.56729 14.1059 2.40389 12.3071 2.67269C10.5083 2.94149 8.79937 3.63477 7.32171 4.69516C5.84404 5.75555 4.64012 7.15256 3.80956 8.77061C2.97901 10.3887 2.54568 12.1812 2.54545 14ZM14 25.4545C11.3704 25.4588 8.82018 24.5542 6.78109 22.8938C7.60176 21.7186 8.69425 20.7591 9.96555 20.0969C11.2369 19.4348 12.6493 19.0897 14.0827 19.0909C15.4982 19.0897 16.8936 19.4262 18.1529 20.0726C19.4122 20.7189 20.4991 21.6565 21.3233 22.8073C19.2684 24.5216 16.6761 25.4587 14 25.4545Z" fill="#F8F8F8"/>
</svg>
