<svg width="1106" height="242" viewBox="0 0 1106 242" fill="none" xmlns="http://www.w3.org/2000/svg">
<path d="M82.0312 166.569C91.875 164.655 100.557 159.938 108.076 152.419C118.057 142.438 123.047 130.373 123.047 116.223C123.047 102.072 118.022 90.0068 107.974 80.0264C97.9932 69.9775 85.9277 64.9531 71.7773 64.9531C57.627 64.9531 45.5273 69.9775 35.4785 80.0264C25.498 90.0068 20.5078 102.072 20.5078 116.223C20.5078 130.373 25.5322 142.438 35.5811 152.419C43.0322 159.938 51.6797 164.655 61.5234 166.569V116.223H82.0312V166.569ZM61.5234 188.103C46.2793 185.778 32.7783 178.737 21.0205 166.979C7.00684 152.966 0 136.047 0 116.223C0 96.3984 7.00684 79.4795 21.0205 65.4658C35.0342 51.4521 51.9531 44.4453 71.7773 44.4453C91.6016 44.4453 108.521 51.4521 122.534 65.4658C136.548 79.4795 143.555 96.3984 143.555 116.223C143.555 136.047 136.548 152.966 122.534 166.979C111.323 178.19 97.8564 185.197 82.1338 188L82.0312 208.508H61.5234V188.103ZM174.316 136.73C174.316 145.207 177.324 152.453 183.34 158.469C189.355 164.484 196.602 167.492 205.078 167.492C213.555 167.492 220.801 164.484 226.816 158.469C232.832 152.453 235.84 145.207 235.84 136.73V85.4609H256.348V136.73C256.348 150.881 251.323 162.98 241.274 173.029C231.294 183.01 219.229 188 205.078 188C190.928 188 178.828 183.01 168.779 173.029C158.799 162.98 153.809 150.881 153.809 136.73V85.4609H174.316V136.73ZM287.109 85.4609V188H266.602V85.4609H287.109ZM266.602 64.9531V44.4453H287.109V64.9531H266.602ZM348.633 167.492C357.109 167.492 364.355 164.484 370.371 158.469C376.387 152.453 379.395 145.207 379.395 136.73C379.395 128.254 376.387 121.008 370.371 114.992C364.355 108.977 357.109 105.969 348.633 105.969C340.156 105.969 332.91 108.977 326.895 114.992C320.879 121.008 317.871 128.254 317.871 136.73C317.871 145.207 320.879 152.453 326.895 158.469C332.91 164.484 340.156 167.492 348.633 167.492ZM297.363 136.73C297.363 122.58 302.354 110.515 312.334 100.534C322.383 90.4854 334.482 85.4609 348.633 85.4609C362.783 85.4609 374.849 90.4854 384.829 100.534C394.878 110.515 399.902 122.58 399.902 136.73C399.902 150.881 394.878 162.98 384.829 173.029C374.849 183.01 362.783 188 348.633 188C336.943 188 326.689 184.616 317.871 177.849V229.016H297.363V136.73ZM430.664 136.73C430.664 145.207 433.672 152.453 439.688 158.469C445.703 164.484 452.949 167.492 461.426 167.492C469.902 167.492 477.148 164.484 483.164 158.469C489.18 152.453 492.188 145.207 492.188 136.73V85.4609H512.695V136.73C512.695 150.881 507.671 162.98 497.622 173.029C487.642 183.01 475.576 188 461.426 188C447.275 188 435.176 183.01 425.127 173.029C415.146 162.98 410.156 150.881 410.156 136.73V85.4609H430.664V136.73Z" fill="white"/>
<path fill-rule="evenodd" clip-rule="evenodd" d="M791.456 46.0337H650.05C636.795 46.0337 626.05 56.7789 626.05 70.0337V112.556L645.05 107.864V70.0337C645.05 67.2723 647.288 65.0337 650.05 65.0337H791.456C794.217 65.0337 796.456 67.2723 796.456 70.0337V162.506C796.456 165.267 794.217 167.506 791.456 167.506H650.05C647.288 167.506 645.05 165.267 645.05 162.506V132.673H626.05V162.506C626.05 175.76 636.795 186.506 650.05 186.506H791.456C804.711 186.506 815.456 175.76 815.456 162.506V70.0337C815.456 56.7789 804.711 46.0337 791.456 46.0337Z" fill="#00DC5A"/>
<g clip-path="url(#clip0_658_4103)">
<path d="M761.859 96.9586L785.641 101.777L779.269 119.758" stroke="#00DC5A" stroke-width="15" stroke-linecap="round" stroke-linejoin="round"/>
<path d="M631.394 132.673L672.959 119.455C673.977 119.132 675.185 118.875 676.515 118.7C677.845 118.524 679.27 118.434 680.71 118.434C682.149 118.434 683.574 118.524 684.904 118.7C686.234 118.875 687.442 119.132 688.46 119.455L705.837 124.981C706.854 125.305 708.063 125.561 709.392 125.737C710.722 125.912 712.147 126.002 713.587 126.002C715.026 126.002 716.451 125.912 717.781 125.737C719.111 125.561 720.319 125.305 721.337 124.981L768.382 110.021" stroke="#00DC5A" stroke-width="15" stroke-linecap="round" stroke-linejoin="round"/>
</g>
<path d="M582.604 188H533.854V45.9395H582.604C588.762 45.9395 593.999 48.1294 598.315 52.5093C602.695 56.8257 604.885 62.0625 604.885 68.2197V106.687C604.885 116.589 600.6 123.413 592.031 127.158C600.6 130.903 604.885 137.727 604.885 147.629V165.72C604.885 171.877 602.695 177.146 598.315 181.525C593.999 185.842 588.762 188 582.604 188ZM574.035 116.97C576.384 116.97 578.383 116.145 580.034 114.494C581.748 112.78 582.604 110.749 582.604 108.4V71.0762C582.604 69.7432 582.128 68.6323 581.176 67.7437C580.288 66.7915 579.208 66.3154 577.939 66.3154H556.135V116.97H574.035ZM577.939 167.624C579.208 167.624 580.288 167.18 581.176 166.291C582.128 165.339 582.604 164.228 582.604 162.958V146.01C582.604 143.598 581.748 141.567 580.034 139.917C578.383 138.203 576.384 137.346 574.035 137.346H556.135V167.624H577.939Z" fill="white"/>
<path d="M908.123 188H885.843V137.346H859.373V188H837.093V68.2197C837.093 62.0625 839.251 56.8257 843.567 52.5093C847.947 48.1294 853.216 45.9395 859.373 45.9395H885.843C892 45.9395 897.237 48.1294 901.553 52.5093C905.933 56.8257 908.123 62.0625 908.123 68.2197V188ZM885.843 116.97V71.0762C885.843 69.7432 885.367 68.6323 884.415 67.7437C883.526 66.7915 882.447 66.3154 881.177 66.3154H864.134C862.801 66.3154 861.658 66.7915 860.706 67.7437C859.817 68.6323 859.373 69.7432 859.373 71.0762V116.97H885.843ZM1001.03 188H978.75V146.01C978.75 143.598 977.893 141.567 976.179 139.917C974.528 138.203 972.529 137.346 970.18 137.346H952.28V188H930V45.9395H978.75C984.907 45.9395 990.144 48.1294 994.46 52.5093C998.84 56.8257 1001.03 62.0625 1001.03 68.2197V106.687C1001.03 116.589 996.745 123.413 988.176 127.158C996.745 130.903 1001.03 137.727 1001.03 147.629V188ZM970.18 116.97C972.529 116.97 974.528 116.145 976.179 114.494C977.893 112.78 978.75 110.749 978.75 108.4V71.0762C978.75 69.7432 978.274 68.6323 977.321 67.7437C976.433 66.7915 975.354 66.3154 974.084 66.3154H952.28V116.97H970.18ZM1071.66 188H1022.91V45.9395H1071.66C1077.81 45.9395 1083.05 48.1294 1087.37 52.5093C1091.75 56.8257 1093.94 62.0625 1093.94 68.2197V165.72C1093.94 171.877 1091.75 177.146 1087.37 181.525C1083.05 185.842 1077.81 188 1071.66 188ZM1066.99 167.624C1068.26 167.624 1069.34 167.18 1070.23 166.291C1071.18 165.339 1071.66 164.228 1071.66 162.958V71.0762C1071.66 69.7432 1071.18 68.6323 1070.23 67.7437C1069.34 66.7915 1068.26 66.3154 1066.99 66.3154H1045.19V167.624H1066.99Z" fill="white"/>
<defs>
<clipPath id="clip0_658_4103">
<rect width="189" height="78" fill="white" transform="translate(626 77)"/>
</clipPath>
</defs>
</svg>
