<svg width="696" height="785" viewBox="0 0 696 785" fill="none" xmlns="http://www.w3.org/2000/svg">
<g filter="url(#filter0_d_726_4870)">
<path d="M209.291 28.5161C210.707 11.2428 211.416 2.6062 205.594 0.429347C199.772 -1.74751 195.208 4.44906 186.079 16.8422C177.944 27.8872 169.534 41.9501 162.798 59.1596C152.192 86.2575 148.564 104.253 147.467 115.059C146.944 120.21 146.683 122.785 149.132 125.493C151.581 128.2 154.597 128.2 160.628 128.2H216.8C241.698 128.2 254.147 128.2 256.161 122.9C258.176 117.6 248.151 108.712 228.101 90.9356C223.313 86.6906 219.151 82.375 216.118 78.1617C208.426 67.4736 207.75 47.3001 209.291 28.5161Z" fill="#0B4550"/>
<path d="M478.751 28.5161C477.335 11.2428 476.626 2.6062 482.448 0.429347C488.27 -1.74751 492.834 4.44906 501.962 16.8422C510.098 27.8872 518.507 41.9501 525.244 59.1596C535.85 86.2575 539.478 104.253 540.575 115.059C541.098 120.21 541.359 122.785 538.91 125.493C536.461 128.2 533.445 128.2 527.414 128.2H471.241C446.344 128.2 433.895 128.2 431.88 122.9C429.866 117.6 439.891 108.712 459.941 90.9356C464.729 86.6906 468.891 82.375 471.923 78.1617C479.616 67.4736 480.292 47.3001 478.751 28.5161Z" fill="#0B4550"/>
<path d="M165.136 270.635C165.136 203.717 165.136 170.259 177.793 144.537C189.82 120.098 209.609 100.326 234.069 88.3096C259.813 75.6632 293.3 75.6632 360.276 75.6632C416.088 75.6632 443.994 75.6632 465.447 86.2019C485.831 96.2153 502.322 112.692 512.344 133.058C522.892 154.493 522.892 182.375 522.892 238.139V671.409H165.136V270.635Z" fill="#01A081"/>
<path d="M165.136 671.409H314.818L279.154 752.451C273.911 764.364 271.29 770.32 266.169 773.66C261.047 777 254.535 777 241.51 777H206.257C186.872 777 177.18 777 171.158 770.983C165.136 764.966 165.136 755.282 165.136 735.914V671.409Z" fill="#01A081"/>
<path d="M165.547 756.457H277.397C273.727 764.605 271.892 768.679 268.843 771.509C267.086 773.14 265.057 774.451 262.847 775.383C259.013 777 254.541 777 245.598 777H186.108C174.753 777 165.547 767.802 165.547 756.457Z" fill="#0B4550"/>
<path d="M522.892 671.409H373.21L408.874 752.451C414.116 764.364 416.737 770.32 421.859 773.66C426.981 777 433.493 777 446.517 777H481.771C501.155 777 510.848 777 516.87 770.983C522.892 764.966 522.892 755.282 522.892 735.914V671.409Z" fill="#01A081"/>
<path d="M522.481 756.457H410.63C414.3 764.605 416.135 768.679 419.185 771.509C420.942 773.14 422.971 774.451 425.181 775.383C429.015 777 433.486 777 442.429 777H501.92C513.275 777 522.481 767.802 522.481 756.457Z" fill="#0B4550"/>
<path d="M523.16 448.331L457.079 369.647L598.833 250.804C613.683 238.354 621.107 232.129 629.592 232.871C638.076 233.613 644.306 241.031 656.766 255.868L669.982 271.605C682.443 286.441 688.673 293.86 687.93 302.337C687.188 310.813 679.763 317.038 664.914 329.488L523.16 448.331Z" fill="#01A081"/>
<path d="M680.655 316.445L614.574 237.761C623.273 230.468 636.242 231.602 643.541 240.293L683.189 287.503C690.488 296.194 689.354 309.152 680.655 316.445Z" fill="#0B4550"/>
<path d="M164.84 448.331L230.921 369.647L89.1671 250.804C74.3174 238.354 66.8926 232.129 58.4085 232.871C49.9244 233.613 43.6943 241.031 31.2339 255.868L18.0178 271.605C5.55747 286.442 -0.672681 293.86 0.069582 302.337C0.811845 310.814 8.23665 317.038 23.0863 329.488L164.84 448.331Z" fill="#01A081"/>
<path d="M7.34501 316.445L73.4258 237.761C64.7271 230.468 51.7583 231.602 44.4592 240.293L4.81076 287.503C-2.48832 296.195 -1.35369 309.152 7.34501 316.445Z" fill="#0B4550"/>
<path d="M504.387 116.767C504.387 115.001 506.471 114.058 507.8 115.224L584.585 182.586C586.01 183.837 585.125 186.184 583.228 186.184H506.443C505.308 186.184 504.387 185.265 504.387 184.13L504.387 116.767Z" fill="#01A081"/>
<path d="M522.07 174.504C522.07 173.738 522.761 173.158 523.516 173.289L583.317 183.738C584.803 183.997 584.613 186.184 583.105 186.184H523.303C522.622 186.184 522.069 185.632 522.069 184.952L522.07 174.504Z" fill="#0B4550"/>
<path d="M182.818 116.767C182.818 115.001 180.734 114.058 179.405 115.224L102.62 182.586C101.195 183.837 102.08 186.184 103.977 186.184H180.762C181.898 186.184 182.818 185.265 182.818 184.13L182.818 116.767Z" fill="#01A081"/>
<path d="M167.192 174.494C167.192 173.732 166.506 173.152 165.753 173.279L103.609 183.736C102.117 183.987 102.301 186.184 103.814 186.184H165.958C166.64 186.184 167.192 185.632 167.192 184.952L167.192 174.494Z" fill="#0B4550"/>
<path d="M540.999 120.344C540.999 145.134 520.886 165.231 496.074 165.231C471.263 165.231 451.149 145.134 451.149 120.344C451.149 92.2069 448.016 86.8565 489.396 69.8325C514.208 69.8325 540.999 95.5543 540.999 120.344Z" fill="#0B4550"/>
<path d="M147.042 120.344C147.042 145.134 167.156 165.231 191.968 165.231C216.779 165.231 236.893 145.134 236.893 120.344C236.893 92.2069 240.026 86.8565 198.645 69.8325C173.834 69.8325 147.042 95.5543 147.042 120.344Z" fill="#0B4550"/>
<path d="M359.64 203.082C359.64 178.989 379.188 159.458 403.301 159.458C427.415 159.458 446.963 178.989 446.963 203.082V279.471C446.963 286.798 446.963 290.462 444.789 292.821C444.636 292.988 444.475 293.148 444.309 293.301C441.948 295.473 438.281 295.473 430.947 295.473H375.656C368.322 295.473 364.655 295.473 362.294 293.301C362.127 293.148 361.967 292.988 361.813 292.821C359.64 290.462 359.64 286.798 359.64 279.471V203.082Z" fill="white"/>
<path d="M371.08 209.025C371.08 195.204 382.294 183.999 396.128 183.999C409.961 183.999 421.176 195.204 421.176 209.025V224.526C421.176 238.347 409.961 249.552 396.128 249.552C382.294 249.552 371.08 238.347 371.08 224.526V209.025Z" fill="black"/>
<path d="M371.08 193.629C371.08 188.31 375.395 183.999 380.718 183.999C386.041 183.999 390.356 188.31 390.356 193.629V199.582C390.356 204.9 386.041 209.212 380.718 209.212C375.395 209.212 371.08 204.9 371.08 199.582V193.629Z" fill="white"/>
<path d="M328.533 203.082C328.533 178.989 308.985 159.458 284.872 159.458C260.758 159.458 241.21 178.989 241.21 203.082V279.471C241.21 286.798 241.21 290.462 243.384 292.821C243.537 292.988 243.698 293.148 243.865 293.301C246.226 295.473 249.892 295.473 257.226 295.473H312.518C319.851 295.473 323.518 295.473 325.879 293.301C326.046 293.148 326.206 292.988 326.36 292.821C328.533 290.462 328.533 286.798 328.533 279.471V203.082Z" fill="white"/>
<path d="M317.251 209.025C317.251 195.204 306.036 183.999 292.203 183.999C278.369 183.999 267.154 195.204 267.154 209.025V224.526C267.154 238.347 278.369 249.552 292.203 249.552C306.036 249.552 317.251 238.347 317.251 224.526V209.025Z" fill="black"/>
<path d="M317.251 193.629C317.251 188.31 312.935 183.999 307.612 183.999C302.289 183.999 297.974 188.31 297.974 193.629V199.582C297.974 204.9 302.289 209.212 307.612 209.212C312.935 209.212 317.251 204.9 317.251 199.582V193.629Z" fill="white"/>
<path d="M230.93 348.563C230.93 323.616 230.93 311.142 234.492 301.13C240.707 283.656 254.467 269.908 271.956 263.698C281.977 260.139 294.462 260.139 319.43 260.139H368.597C393.566 260.139 406.051 260.139 416.072 263.698C433.56 269.908 447.321 283.656 453.536 301.13C457.098 311.142 457.098 323.616 457.098 348.563C457.098 361.869 457.098 368.521 455.198 373.861C451.883 383.18 444.544 390.513 435.217 393.825C429.873 395.723 423.214 395.723 409.897 395.723H278.13C264.814 395.723 258.155 395.723 252.811 393.825C243.483 390.513 236.144 383.18 232.83 373.861C230.93 368.521 230.93 361.869 230.93 348.563Z" fill="#D9D9D9"/>
<path d="M302.892 290.954C302.892 285.281 307.495 280.682 313.173 280.682C318.85 280.682 323.453 285.281 323.453 290.954V311.497C323.453 317.169 318.85 321.768 313.173 321.768C307.495 321.768 302.892 317.169 302.892 311.497V290.954Z" fill="black"/>
<path d="M364.575 290.954C364.575 285.281 369.177 280.682 374.855 280.682C380.533 280.682 385.135 285.281 385.135 290.954V311.497C385.135 317.169 380.533 321.768 374.855 321.768C369.177 321.768 364.575 317.169 364.575 311.497V290.954Z" fill="black"/>
<path d="M290.556 342.311H397.472C397.472 365.002 379.061 383.397 356.35 383.397H331.677C308.967 383.397 290.556 365.002 290.556 342.311Z" fill="black"/>
<path d="M323.453 382.575L328.593 383.397H360.668L364.575 382.575C364.575 374.406 357.947 367.784 349.771 367.784H338.257C330.081 367.784 323.453 374.406 323.453 382.575Z" fill="#FD6355"/>
<path d="M243.266 145.92L325.397 141.62L326.042 153.929L243.912 158.229L243.266 145.92Z" fill="#0B4550"/>
<path d="M444.761 145.92L362.631 141.62L361.986 153.929L444.116 158.229L444.761 145.92Z" fill="#0B4550"/>
<path d="M330.176 116.812C320.461 124.956 306.646 123.297 298.772 113.92C290.897 104.544 292.088 91.1717 301.803 83.0273C311.151 75.1896 324.056 76.6952 342.465 75.5972C343.471 75.5372 343.974 75.5072 344.24 75.8141C344.505 76.121 344.403 76.6134 344.199 77.5981C340.276 96.5128 339.541 108.96 330.176 116.812Z" fill="#0B4550"/>
<path d="M327.409 96.1023C321.685 100.902 316.084 102.949 314.509 101.073C312.934 99.198 316.01 94.1447 321.735 89.3453C326.059 85.7196 330.218 83.7519 335.724 81.1761C338.099 80.0649 339.287 79.5094 339.693 79.9887C340.1 80.468 339.357 81.5463 337.873 83.7028C334.363 88.8004 331.762 92.4531 327.409 96.1023Z" fill="#DDF247"/>
<path d="M357.675 116.812C367.39 124.956 381.205 123.297 389.079 113.92C396.954 104.544 395.763 91.1717 386.049 83.0273C376.7 75.1896 363.795 76.6952 345.387 75.5972C344.38 75.5372 343.877 75.5072 343.611 75.8141C343.346 76.121 343.448 76.6134 343.652 77.5981C347.575 96.5128 348.31 108.96 357.675 116.812Z" fill="#0B4550"/>
<path d="M360.442 96.1023C366.167 100.902 371.767 102.949 373.342 101.073C374.917 99.198 371.841 94.1447 366.117 89.3453C361.792 85.7196 357.633 83.7519 352.127 81.1761C349.752 80.0649 348.564 79.5094 348.158 79.9887C347.751 80.468 348.494 81.5463 349.978 83.7028C353.488 88.8004 356.089 92.4531 360.442 96.1023Z" fill="#DDF247"/>
<path d="M364.575 110.573C364.575 122.317 355.116 131.129 343.704 131.129C332.292 131.129 323.453 122.317 323.453 110.573C323.453 99.3033 332.206 91.0602 342.408 77.4161C343.009 76.6124 343.31 76.2105 343.714 76.2045C344.119 76.1985 344.43 76.5907 345.054 77.3751C356.17 91.3561 364.575 99.2816 364.575 110.573Z" fill="#0B4550"/>
<path d="M348.126 100.197C348.126 107.118 346.234 112.31 343.952 112.31C341.669 112.31 339.902 107.118 339.902 100.197C339.902 95.1048 340.931 91.0612 342.331 85.8275C343.008 83.2977 343.346 82.0328 343.974 82.0298C344.603 82.0268 344.952 83.2866 345.652 85.8062C347.128 91.1192 348.126 95.0691 348.126 100.197Z" fill="#DDF247"/>
<path d="M330.176 526.439C320.461 534.583 306.646 532.923 298.772 523.547C290.897 514.171 292.088 500.798 301.803 492.654C311.151 484.816 324.056 486.322 342.465 485.224C343.471 485.164 343.974 485.134 344.24 485.441C344.505 485.748 344.403 486.24 344.199 487.225C340.276 506.14 339.541 518.587 330.176 526.439Z" fill="#0B4550"/>
<path d="M327.409 505.729C321.685 510.528 316.084 512.575 314.509 510.7C312.934 508.825 316.01 503.771 321.735 498.972C326.059 495.346 330.218 493.379 335.724 490.803C338.099 489.692 339.287 489.136 339.693 489.615C340.1 490.095 339.357 491.173 337.873 493.329C334.363 498.427 331.762 502.08 327.409 505.729Z" fill="#DDF247"/>
<path d="M357.675 526.439C367.39 534.583 381.205 532.923 389.079 523.547C396.954 514.171 395.763 500.798 386.049 492.654C376.7 484.816 363.795 486.322 345.387 485.224C344.38 485.164 343.877 485.134 343.611 485.441C343.346 485.748 343.448 486.24 343.652 487.225C347.575 506.14 348.31 518.587 357.675 526.439Z" fill="#0B4550"/>
<path d="M360.442 505.729C366.167 510.528 371.767 512.575 373.342 510.7C374.917 508.825 371.841 503.771 366.117 498.972C361.792 495.346 357.633 493.379 352.127 490.803C349.752 489.692 348.564 489.136 348.158 489.615C347.751 490.095 348.494 491.173 349.978 493.329C353.488 498.427 356.089 502.08 360.442 505.729Z" fill="#DDF247"/>
<path d="M364.575 520.2C364.575 531.944 355.116 540.756 343.704 540.756C332.292 540.756 323.453 531.944 323.453 520.2C323.453 508.93 332.206 500.687 342.408 487.043C343.009 486.239 343.31 485.837 343.714 485.831C344.119 485.825 344.43 486.217 345.054 487.002C356.17 500.983 364.575 508.908 364.575 520.2Z" fill="#0B4550"/>
<path d="M348.126 509.824C348.126 516.744 346.234 521.937 343.952 521.937C341.669 521.937 339.902 516.744 339.902 509.824C339.902 504.732 340.931 500.688 342.331 495.454C343.008 492.924 343.346 491.66 343.974 491.657C344.603 491.654 344.952 492.913 345.652 495.433C347.128 500.746 348.126 504.696 348.126 509.824Z" fill="#DDF247"/>
<path d="M330.176 485.353C320.461 493.497 306.646 491.837 298.772 482.461C290.897 473.085 292.088 459.713 301.803 451.568C311.151 443.73 324.056 445.236 342.465 444.138C343.471 444.078 343.974 444.048 344.24 444.355C344.505 444.662 344.403 445.154 344.199 446.139C340.276 465.054 339.541 477.501 330.176 485.353Z" fill="#0B4550"/>
<path d="M327.409 464.643C321.685 469.442 316.084 471.489 314.509 469.614C312.934 467.739 316.01 462.686 321.735 457.886C326.059 454.26 330.218 452.293 335.724 449.717C338.099 448.606 339.287 448.05 339.693 448.529C340.1 449.009 339.357 450.087 337.873 452.244C334.363 457.341 331.762 460.994 327.409 464.643Z" fill="#DDF247"/>
<path d="M357.675 485.353C367.39 493.497 381.205 491.837 389.079 482.461C396.954 473.085 395.763 459.713 386.049 451.568C376.7 443.73 363.795 445.236 345.387 444.138C344.38 444.078 343.877 444.048 343.611 444.355C343.346 444.662 343.448 445.154 343.652 446.139C347.575 465.054 348.31 477.501 357.675 485.353Z" fill="#0B4550"/>
<path d="M360.442 464.643C366.167 469.442 371.767 471.489 373.342 469.614C374.917 467.739 371.841 462.686 366.117 457.886C361.792 454.26 357.633 452.293 352.127 449.717C349.752 448.606 348.564 448.05 348.158 448.529C347.751 449.009 348.494 450.087 349.978 452.244C353.488 457.341 356.089 460.994 360.442 464.643Z" fill="#DDF247"/>
<path d="M364.575 479.114C364.575 490.858 355.116 499.67 343.704 499.67C332.292 499.67 323.453 490.858 323.453 479.114C323.453 467.844 332.206 459.601 342.408 445.957C343.009 445.153 343.31 444.751 343.714 444.745C344.119 444.739 344.43 445.132 345.054 445.916C356.17 459.897 364.575 467.822 364.575 479.114Z" fill="#0B4550"/>
<path d="M348.126 468.738C348.126 475.659 346.234 480.851 343.952 480.851C341.669 480.851 339.902 475.659 339.902 468.738C339.902 463.646 340.931 459.602 342.331 454.368C343.008 451.838 343.346 450.574 343.974 450.571C344.603 450.568 344.952 451.827 345.652 454.347C347.128 459.66 348.126 463.61 348.126 468.738Z" fill="#DDF247"/>
</g>
<defs>
<filter id="filter0_d_726_4870" x="0" y="0" width="696" height="785" filterUnits="userSpaceOnUse" color-interpolation-filters="sRGB">
<feFlood flood-opacity="0" result="BackgroundImageFix"/>
<feColorMatrix in="SourceAlpha" type="matrix" values="0 0 0 0 0 0 0 0 0 0 0 0 0 0 0 0 0 0 127 0" result="hardAlpha"/>
<feOffset dx="4" dy="4"/>
<feGaussianBlur stdDeviation="2"/>
<feComposite in2="hardAlpha" operator="out"/>
<feColorMatrix type="matrix" values="0 0 0 0 0 0 0 0 0 0 0 0 0 0 0 0 0 0 0.25 0"/>
<feBlend mode="normal" in2="BackgroundImageFix" result="effect1_dropShadow_726_4870"/>
<feBlend mode="normal" in="SourceGraphic" in2="effect1_dropShadow_726_4870" result="shape"/>
</filter>
</defs>
</svg>
