<svg width="110" height="30" viewBox="0 0 110 30" fill="none" xmlns="http://www.w3.org/2000/svg">
<g clip-path="url(#clip0_1514_17275)">
<path d="M9.35717 21.1868C10.48 20.9685 11.4704 20.4304 12.3281 19.5727C13.4666 18.4342 14.0358 17.058 14.0358 15.4439C14.0358 13.8297 13.4626 12.4535 12.3164 11.315C11.1779 10.1688 9.80164 9.59564 8.18752 9.59564C6.57342 9.59564 5.19323 10.1688 4.04698 11.315C2.90852 12.4535 2.33929 13.8297 2.33929 15.4439C2.33929 17.058 2.91242 18.4342 4.05868 19.5727C4.90862 20.4304 5.89502 20.9685 7.01788 21.1868V15.4439H9.35717V21.1868ZM7.01788 23.6432C5.27901 23.3779 3.73897 22.5748 2.39778 21.2336C0.799259 19.6351 0 17.7052 0 15.4439C0 13.1825 0.799259 11.2526 2.39778 9.65412C3.9963 8.0556 5.92621 7.25635 8.18752 7.25635C10.4489 7.25635 12.3788 8.0556 13.9773 9.65412C15.5758 11.2526 16.3751 13.1825 16.3751 15.4439C16.3751 17.7052 15.5758 19.6351 13.9773 21.2336C12.6984 22.5124 11.1623 23.3117 9.36887 23.6314L9.35717 25.9707H7.01788V23.6432ZM19.884 17.7831C19.884 18.7501 20.2271 19.5766 20.9133 20.2629C21.5994 20.949 22.4261 21.2921 23.3929 21.2921C24.3599 21.2921 25.1864 20.949 25.8725 20.2629C26.5588 19.5766 26.9019 18.7501 26.9019 17.7831V11.9349H29.2412V17.7831C29.2412 19.3973 28.668 20.7774 27.5218 21.9237C26.3833 23.0622 25.0071 23.6314 23.3929 23.6314C21.7789 23.6314 20.3986 23.0622 19.2524 21.9237C18.114 20.7774 17.5448 19.3973 17.5448 17.7831V11.9349H19.884V17.7831ZM32.7501 11.9349V23.6314H30.4109V11.9349H32.7501ZM30.4109 9.59564V7.25635H32.7501V9.59564H30.4109ZM39.768 21.2921C40.7349 21.2921 41.5614 20.949 42.2476 20.2629C42.9339 19.5766 43.277 18.7501 43.277 17.7831C43.277 16.8163 42.9339 15.9897 42.2476 15.3035C41.5614 14.6174 40.7349 14.2743 39.768 14.2743C38.8011 14.2743 37.9745 14.6174 37.2884 15.3035C36.6022 15.9897 36.2591 16.8163 36.2591 17.7831C36.2591 18.7501 36.6022 19.5766 37.2884 20.2629C37.9745 20.949 38.8011 21.2921 39.768 21.2921ZM33.9197 17.7831C33.9197 16.1691 34.4891 14.7928 35.6275 13.6543C36.7737 12.508 38.1538 11.9349 39.768 11.9349C41.3821 11.9349 42.7584 12.508 43.8968 13.6543C45.0431 14.7928 45.6162 16.1691 45.6162 17.7831C45.6162 19.3973 45.0431 20.7774 43.8968 21.9237C42.7584 23.0622 41.3821 23.6314 39.768 23.6314C38.4346 23.6314 37.2649 23.2454 36.2591 22.4735V28.31H33.9197V17.7831ZM49.1252 17.7831C49.1252 18.7501 49.4683 19.5766 50.1545 20.2629C50.8406 20.949 51.6672 21.2921 52.6341 21.2921C53.601 21.2921 54.4275 20.949 55.1138 20.2629C55.8 19.5766 56.1431 18.7501 56.1431 17.7831V11.9349H58.4823V17.7831C58.4823 19.3973 57.9092 20.7774 56.763 21.9237C55.6246 23.0622 54.2482 23.6314 52.6341 23.6314C51.02 23.6314 49.6399 23.0622 48.4936 21.9237C47.3551 20.7774 46.7859 19.3973 46.7859 17.7831V11.9349H49.1252V17.7831Z" fill="white"/>
<path d="M65.2929 23.6312V7.35591H68.9642V23.6312H65.2929ZM60.125 10.3257V7.12207H74.132V10.3257H60.125Z" fill="white"/>
<path d="M76.3419 17.1744L76.5785 6.4209L81.0046 6.80814L79.3702 17.4394L76.3419 17.1744ZM77.2833 23.8529C76.6156 23.7944 76.0763 23.5204 75.6653 23.0306C75.2698 22.5421 75.1013 21.964 75.1597 21.2963C75.2181 20.6284 75.4845 20.0884 75.9588 19.676C76.4485 19.2651 77.0272 19.0888 77.6951 19.1472C78.3629 19.2056 78.8944 19.4791 79.2899 19.9675C79.6854 20.4559 79.8539 21.034 79.7955 21.7018C79.7371 22.3697 79.4707 22.9097 78.9964 23.322C78.5222 23.7344 77.9512 23.9113 77.2833 23.8529Z" fill="#00DC5A"/>
<path d="M85.9555 17.6215V14.7686H89.5099C89.9619 14.7686 90.3751 14.6751 90.7492 14.488C91.1234 14.301 91.4196 14.0281 91.6378 13.6696C91.856 13.3111 91.9652 12.8745 91.9652 12.3601C91.9652 11.8613 91.856 11.4325 91.6378 11.074C91.4196 10.7154 91.1234 10.4426 90.7492 10.2555C90.3751 10.0685 89.9619 9.97492 89.5099 9.97492H85.9555V7.12207H90.0477C91.0922 7.12207 92.0353 7.33253 92.8772 7.75344C93.719 8.17435 94.3815 8.78234 94.8648 9.57739C95.3636 10.3569 95.6131 11.2844 95.6131 12.3601C95.6131 13.4358 95.3636 14.3711 94.8648 15.1662C94.3815 15.9456 93.719 16.5536 92.8772 16.9901C92.0353 17.411 91.0922 17.6215 90.0477 17.6215H85.9555ZM83.1494 23.6312V7.12207H86.8207V23.6312H83.1494Z" fill="white"/>
<path d="M102.821 23.8883C101.465 23.8883 100.295 23.6701 99.3132 23.2336C98.3467 22.7815 97.4581 22.1034 96.6475 21.1992L99.0326 18.8374C99.5627 19.4454 100.147 19.9208 100.786 20.2638C101.441 20.5912 102.197 20.7549 103.055 20.7549C103.834 20.7549 104.434 20.6146 104.855 20.3339C105.292 20.0533 105.51 19.6636 105.51 19.1647C105.51 18.7127 105.37 18.3463 105.089 18.0657C104.808 17.7851 104.434 17.5435 103.967 17.3408C103.515 17.1381 103.008 16.9433 102.447 16.7562C101.901 16.5691 101.355 16.3587 100.81 16.1248C100.264 15.8754 99.7575 15.5714 99.2899 15.2128C98.8378 14.8387 98.4714 14.3788 98.1908 13.8332C97.9102 13.272 97.7699 12.5704 97.7699 11.7286C97.7699 10.7153 98.0115 9.84231 98.4948 9.10961C98.9936 8.37691 99.6796 7.82349 100.553 7.44935C101.426 7.05961 102.431 6.86475 103.569 6.86475C104.723 6.86475 105.775 7.06741 106.726 7.47273C107.692 7.87805 108.488 8.43148 109.111 9.133L106.726 11.4948C106.227 10.9803 105.72 10.5984 105.206 10.349C104.707 10.0995 104.138 9.97482 103.499 9.97482C102.86 9.97482 102.353 10.0995 101.979 10.349C101.605 10.5828 101.418 10.9258 101.418 11.3779C101.418 11.7988 101.558 12.1418 101.839 12.4068C102.119 12.6562 102.486 12.8744 102.938 13.0615C103.405 13.2486 103.912 13.4357 104.458 13.6227C105.019 13.8098 105.572 14.028 106.118 14.2775C106.664 14.527 107.163 14.8465 107.615 15.2362C108.082 15.6104 108.456 16.0937 108.737 16.686C109.018 17.2629 109.158 17.9799 109.158 18.8374C109.158 20.4119 108.597 21.6512 107.474 22.5554C106.352 23.444 104.801 23.8883 102.821 23.8883Z" fill="white"/>
</g>
<defs>
<clipPath id="clip0_1514_17275">
<rect width="109.962" height="30" fill="white"/>
</clipPath>
</defs>
</svg>
