<svg width="21" height="21" viewBox="0 0 21 21" fill="none" xmlns="http://www.w3.org/2000/svg">
<g clip-path="url(#clip0_991_10126)">
<path d="M2.50195 3.73242C2.50195 4.3851 2.76123 5.01105 3.22275 5.47257C3.68426 5.93408 4.31021 6.19336 4.96289 6.19336C5.61557 6.19336 6.24152 5.93408 6.70304 5.47257C7.16455 5.01105 7.42383 4.3851 7.42383 3.73242C7.42383 3.07974 7.16455 2.45379 6.70304 1.99228C6.24152 1.53076 5.61557 1.27148 4.96289 1.27148C4.31021 1.27148 3.68426 1.53076 3.22275 1.99228C2.76123 2.45379 2.50195 3.07974 2.50195 3.73242Z" stroke="black" stroke-linecap="round" stroke-linejoin="round"/>
<path d="M4.96289 7.42383V12.3457" stroke="black" stroke-linecap="round" stroke-linejoin="round"/>
<path d="M8.60509 10.4999C8.45416 9.58479 7.96434 8.76011 7.23306 8.18978C6.50177 7.61945 5.58261 7.34527 4.65838 7.42177C3.73415 7.49827 2.87258 7.91985 2.24502 8.60266C1.61747 9.28546 1.26991 10.1794 1.27149 11.1069V13.5678H2.50196L3.1172 19.7284H6.8086L7.42384 13.576" stroke="black" stroke-linecap="round" stroke-linejoin="round"/>
<path d="M10.7051 12.3457H18.9082C18.9082 12.3457 19.7285 12.3457 19.7285 13.166V18.9082C19.7285 18.9082 19.7285 19.7285 18.9082 19.7285H10.7051C10.7051 19.7285 9.88477 19.7285 9.88477 18.9082V13.166C9.88477 13.166 9.88477 12.3457 10.7051 12.3457Z" stroke="black" stroke-linecap="round" stroke-linejoin="round"/>
<path d="M9.88477 15.4219H19.7285" stroke="black" stroke-linecap="round" stroke-linejoin="round"/>
<path d="M14.8066 15.4219V17.0625" stroke="black" stroke-linecap="round" stroke-linejoin="round"/>
<path d="M12.9609 12.3457V11.3203C12.9609 10.8308 13.1554 10.3614 13.5015 10.0152C13.8477 9.66911 14.3172 9.47461 14.8066 9.47461C15.2961 9.47461 15.7656 9.66911 16.1118 10.0152C16.4578 10.3614 16.6523 10.8308 16.6523 11.3203V12.3457" stroke="black" stroke-linecap="round" stroke-linejoin="round"/>
</g>
<defs>
<clipPath id="clip0_991_10126">
<rect width="21" height="21" fill="white"/>
</clipPath>
</defs>
</svg>
