<svg width="18" height="10" viewBox="0 0 18 10" fill="none" xmlns="http://www.w3.org/2000/svg">
<path fill-rule="evenodd" clip-rule="evenodd" d="M9.88345 9.63369C9.64904 9.86803 9.33115 9.99967 8.9997 9.99967C8.66824 9.99967 8.35036 9.86803 8.11595 9.63369L1.0447 2.56244C0.925309 2.44713 0.830081 2.3092 0.76457 2.1567C0.699058 2.00419 0.664575 1.84017 0.663133 1.67419C0.661691 1.50822 0.693318 1.34362 0.756169 1.19C0.819021 1.03638 0.911837 0.896812 1.0292 0.779446C1.14657 0.66208 1.28613 0.569264 1.43975 0.506413C1.59337 0.443562 1.75797 0.411935 1.92395 0.413377C2.08992 0.41482 2.25395 0.449302 2.40645 0.514814C2.55896 0.580325 2.69689 0.675552 2.8122 0.79494L8.9997 6.98244L15.1872 0.79494C15.423 0.567242 15.7387 0.441249 16.0664 0.444098C16.3942 0.446946 16.7077 0.578406 16.9395 0.810167C17.1712 1.04193 17.3027 1.35544 17.3055 1.68319C17.3084 2.01093 17.1824 2.32669 16.9547 2.56244L9.88345 9.63369Z" fill="#21262B"/>
</svg>
