<svg width="18" height="10" viewBox="0 0 18 10" fill="none" xmlns="http://www.w3.org/2000/svg">
<path fill-rule="evenodd" clip-rule="evenodd" d="M9.88344 0.36631C9.64904 0.131971 9.33115 0.00032711 8.99969 0.00032711C8.66824 0.00032711 8.35035 0.131971 8.11595 0.36631L1.0447 7.43756C0.925309 7.55287 0.830081 7.6908 0.76457 7.8433C0.699058 7.99581 0.664575 8.15983 0.663133 8.32581C0.661691 8.49178 0.693318 8.65638 0.756169 8.81C0.819021 8.96362 0.911837 9.10319 1.0292 9.22055C1.14657 9.33792 1.28613 9.43074 1.43975 9.49359C1.59337 9.55644 1.75797 9.58806 1.92395 9.58662C2.08992 9.58518 2.25395 9.5507 2.40645 9.48519C2.55896 9.41968 2.69689 9.32445 2.8122 9.20506L8.99969 3.01756L15.1872 9.20506C15.4229 9.43276 15.7387 9.55875 16.0664 9.5559C16.3942 9.55305 16.7077 9.42159 16.9395 9.18983C17.1712 8.95807 17.3027 8.64456 17.3055 8.31681C17.3084 7.98907 17.1824 7.67331 16.9547 7.43756L9.88344 0.36631Z" fill="#00DC5A"/>
</svg>
