<svg width="84" height="93" viewBox="0 0 84 93" fill="none" xmlns="http://www.w3.org/2000/svg">
<path d="M44.2922 89.6C68.0694 90.8461 88.3541 72.5817 89.6002 48.8045C90.8463 25.0277 72.5819 4.74259 48.8047 3.49648C25.0279 2.25039 4.74277 20.5152 3.49668 44.292C2.25057 68.0692 20.5154 88.3539 44.2922 89.6Z" stroke="#00DC5A" stroke-width="6" stroke-linecap="round" stroke-linejoin="round"/>
<path d="M58.4378 35.3652C58.1076 34.2481 57.5617 33.2193 56.846 32.33C55.3236 30.4386 53.0333 29.1785 50.4178 29.0414L43.5822 28.6831C39.2285 28.455 35.5143 31.7993 35.2861 36.1529C35.0919 39.8574 37.5035 43.1973 41.0809 44.1787L51.3689 47.0007C55.3767 48.1 58.0781 51.8442 57.8606 55.9944C57.605 60.8717 53.4438 64.6215 48.5665 64.3659L42.6791 64.0574C38.8339 63.8558 35.6916 61.2269 34.659 57.7334" stroke="white" stroke-width="6" stroke-linecap="round" stroke-linejoin="round"/>
<path d="M47.4737 28.8863L47.9365 20.0552" stroke="white" stroke-width="6" stroke-linecap="round" stroke-linejoin="round"/>
<path d="M45.1602 73.0404L45.623 64.2095" stroke="white" stroke-width="6" stroke-linecap="round" stroke-linejoin="round"/>
</svg>
