<svg width="30" height="30" viewBox="0 0 30 30" fill="none" xmlns="http://www.w3.org/2000/svg">
<path d="M29.0059 14.6812C27.935 11.8789 26.0677 9.45106 23.634 7.69688L28.1246 3.19688L26.8027 1.875L1.8746 26.8031L3.19648 28.125L7.97773 23.3531C10.1122 24.5962 12.5299 25.2708 14.9996 25.3125C18.0554 25.1976 21.0105 24.1898 23.4997 22.4137C25.989 20.6375 27.9032 18.171 29.0059 15.3188C29.0803 15.1128 29.0803 14.8872 29.0059 14.6812ZM14.9996 21.0938C13.7074 21.0932 12.4492 20.6792 11.409 19.9125L13.1246 18.2156C13.836 18.6054 14.6545 18.754 15.4575 18.6391C16.2605 18.5243 17.0046 18.1521 17.5782 17.5786C18.1517 17.005 18.5239 16.2609 18.6387 15.4579C18.7536 14.6549 18.605 13.8364 18.2152 13.125L19.9121 11.4281C20.5726 12.3352 20.9693 13.4073 21.0585 14.5259C21.1476 15.6444 20.9258 16.7658 20.4174 17.7661C19.909 18.7664 19.1339 19.6066 18.1777 20.1939C17.2216 20.7812 16.1217 21.0926 14.9996 21.0938ZM4.24648 20.4469L8.93398 15.7594C8.90994 15.507 8.90055 15.2535 8.90585 15C8.90833 13.3846 9.55114 11.8361 10.6934 10.6938C11.8357 9.55154 13.3842 8.90873 14.9996 8.90625C15.2472 8.90789 15.4944 8.92354 15.7402 8.95312L19.284 5.41875C17.9047 4.9452 16.4578 4.69825 14.9996 4.6875C11.9438 4.80241 8.98872 5.81021 6.49948 7.58633C4.01024 9.36245 2.096 11.829 0.993351 14.6812C0.918883 14.8872 0.918883 15.1128 0.993351 15.3188C1.71434 17.2332 2.82169 18.9788 4.24648 20.4469Z" fill="#00DC5A"/>
</svg>
