<svg xmlns="http://www.w3.org/2000/svg" width="24" height="24" fill="none"><path fill="#060606" fill-rule="evenodd" d="M14.208 4.83c.453.14.887.32 1.3.54l1.833-1.1a1 1 0 0 1 1.221.15l1.018 1.018a1 1 0 0 1 .15 1.221l-1.1 1.833c.22.413.4.847.54 1.3l2.073.519a1 1 0 0 1 .757.97v1.438a1 1 0 0 1-.757.97l-2.073.519a7.42 7.42 0 0 1-.54 1.3l1.1 1.833a1 1 0 0 1-.15 1.221l-1.018 1.018a1 1 0 0 1-1.221.15l-1.833-1.1c-.413.22-.847.4-1.3.54l-.519 2.073a1 1 0 0 1-.97.757h-1.438a1 1 0 0 1-.97-.757l-.519-2.073a7.493 7.493 0 0 1-1.3-.54l-1.833 1.1a1 1 0 0 1-1.221-.15L4.42 18.562a1 1 0 0 1-.15-1.221l1.1-1.833a7.499 7.499 0 0 1-.54-1.3l-2.073-.519A1 1 0 0 1 2 12.72v-1.438a1 1 0 0 1 .757-.97l2.073-.519c.14-.453.32-.887.54-1.3L4.27 6.66a1 1 0 0 1 .15-1.221L5.438 4.42a1 1 0 0 1 1.221-.15l1.833 1.1c.413-.22.847-.4 1.3-.54l.519-2.073A1 1 0 0 1 11.28 2h1.438a1 1 0 0 1 .97.757l.52 2.073ZM12 16a4 4 0 1 0 0-8 4 4 0 0 0 0 8Z" clip-rule="evenodd"/></svg>