<svg width="40" height="40" viewBox="0 0 40 40" fill="none" xmlns="http://www.w3.org/2000/svg">
<path d="M9 4C8.20435 4 7.44129 4.31607 6.87868 4.87868C6.31607 5.44129 6 6.20435 6 7V33C6 33.7956 6.31607 34.5587 6.87868 35.1213C7.44129 35.6839 8.20435 36 9 36H23C23.7957 36 24.5587 35.6839 25.1213 35.1213C25.6839 34.5587 26 33.7956 26 33V30C26 29.7348 25.8946 29.4804 25.7071 29.2929C25.5196 29.1054 25.2652 29 25 29C24.174 29 23.646 28.796 23.288 28.528C22.924 28.256 22.6413 27.8407 22.44 27.282C22.012 26.106 22 24.548 22 23C22 22.8685 21.974 22.7382 21.9235 22.6167C21.8731 22.4952 21.7992 22.3849 21.706 22.292L21.134 21.718L18.708 19.292C17.774 18.358 17.5 17.732 17.448 17.382C17.408 17.102 17.492 16.914 17.692 16.722C18.12 16.312 18.426 16.034 18.772 15.95C18.978 15.898 19.448 15.862 20.292 16.706L26.292 22.706C26.4795 22.8938 26.7339 22.9994 26.9993 22.9996C27.1307 22.9996 27.2608 22.9739 27.3822 22.9237C27.5037 22.8735 27.614 22.7998 27.707 22.707C27.8 22.6142 27.8738 22.5039 27.9241 22.3825C27.9745 22.2612 28.0005 22.1311 28.0006 21.9997C28.0007 21.8683 27.9749 21.7382 27.9247 21.6168C27.8745 21.4953 27.8008 21.385 27.708 21.292L26 19.586V13.414L31.12 18.534C31.3989 18.8125 31.6202 19.1433 31.7712 19.5074C31.9222 19.8715 31.9999 20.2618 32 20.656V35C32 35.2652 32.1054 35.5196 32.2929 35.7071C32.4804 35.8946 32.7348 36 33 36C33.2652 36 33.5196 35.8946 33.7071 35.7071C33.8946 35.5196 34 35.2652 34 35V20.656C33.9997 19.3305 33.4731 18.0594 32.536 17.122L26 10.586V7C26 6.20435 25.6839 5.44129 25.1213 4.87868C24.5587 4.31607 23.7957 4 23 4H9ZM24 11V17.586L21.708 15.292C20.552 14.136 19.4 13.738 18.298 14.006C18.0814 14.0592 17.8715 14.1363 17.672 14.236C16.778 13.9766 15.8358 13.9288 14.9201 14.0963C14.0044 14.2638 13.1403 14.6422 12.396 15.2013C11.6517 15.7605 11.0478 16.4852 10.6319 17.318C10.2161 18.1509 9.99974 19.0691 10 20C9.99992 21.1599 10.336 22.2949 10.9677 23.2678C11.5993 24.2406 12.4993 25.0095 13.5589 25.4814C14.6185 25.9533 15.7921 26.108 16.9377 25.9267C18.0834 25.7454 19.1519 25.236 20.014 24.46C20.048 25.616 20.164 26.88 20.56 27.966C20.856 28.78 21.328 29.558 22.088 30.126L22.1 30.138C21.491 30.3295 20.959 30.7103 20.5813 31.2251C20.2036 31.7398 20 32.3616 20 33V34H12V33C12 32.2044 11.6839 31.4413 11.1213 30.8787C10.5587 30.3161 9.79565 30 9 30H8V10H9C9.79565 10 10.5587 9.68393 11.1213 9.12132C11.6839 8.55871 12 7.79565 12 7V6H20V7C20 7.79565 20.3161 8.55871 20.8787 9.12132C21.4413 9.68393 22.2044 10 23 10H24V11ZM24 33V33.018C23.9953 33.2801 23.8878 33.5298 23.7008 33.7135C23.5138 33.8972 23.2621 34 23 34H22V33C22 32.7348 22.1054 32.4804 22.2929 32.2929C22.4804 32.1054 22.7348 32 23 32H24V33ZM12 20C12 18.9828 12.3876 18.0038 13.0839 17.2622C13.7801 16.5206 14.7328 16.0721 15.748 16.008C15.5 16.468 15.374 17.028 15.47 17.674C15.612 18.638 16.226 19.64 17.292 20.706L19.106 22.52C18.5852 23.1617 17.8785 23.6264 17.0829 23.8502C16.2873 24.0739 15.442 24.0457 14.6631 23.7695C13.8841 23.4933 13.2099 22.9826 12.733 22.3076C12.2562 21.6326 12.0001 20.8264 12 20ZM10 6V7C10 7.26522 9.89464 7.51957 9.70711 7.70711C9.51957 7.89464 9.26522 8 9 8H8V7C8 6.73478 8.10536 6.48043 8.29289 6.29289C8.48043 6.10536 8.73478 6 9 6H10ZM8 32H9C9.26522 32 9.51957 32.1054 9.70711 32.2929C9.89464 32.4804 10 32.7348 10 33V34H9C8.73478 34 8.48043 33.8946 8.29289 33.7071C8.10536 33.5196 8 33.2652 8 33V32ZM24 8H23C22.7348 8 22.4804 7.89464 22.2929 7.70711C22.1054 7.51957 22 7.26522 22 7V6H23C23.2652 6 23.5196 6.10536 23.7071 6.29289C23.8946 6.48043 24 6.73478 24 7V8Z" fill="black"/>
</svg>
