<svg width="40" height="40" viewBox="0 0 40 40" fill="none" xmlns="http://www.w3.org/2000/svg">
<g clip-path="url(#clip0_991_10004)">
<path d="M20.0013 30.4583C17.7463 27.63 16.4213 25.1517 15.9796 23.03C15.5413 21.3183 15.7129 19.95 16.4646 18.9217C17.2596 17.7383 18.4446 17.1617 19.9996 17.1617C21.5546 17.1617 22.7379 17.7367 23.5329 18.9333C24.2763 19.95 24.4629 21.32 24.0096 23.0417C23.5246 25.205 22.2013 27.6833 19.9896 30.4717L20.0013 30.4583ZM36.0029 32.3583C35.6946 34.435 34.2796 36.1583 32.3363 36.9967C28.5813 38.63 24.8646 36.025 21.6829 32.49C26.9446 25.905 27.9163 20.7767 25.6579 17.46C24.3329 15.56 22.4363 14.635 20.0013 14.635C15.0946 14.635 12.3963 18.785 13.4563 23.605C14.0729 26.2133 15.7096 29.1767 18.3179 32.4917C16.6846 34.3 15.1346 35.585 13.7646 36.38C12.7046 36.9533 11.6896 37.31 10.7179 37.395C6.25293 38.06 2.7546 33.7283 4.34293 29.2617C4.56293 28.6867 5.00127 27.6283 5.75127 25.9933L5.79293 25.905C8.23293 20.6083 11.1963 14.5883 14.6013 7.91333L14.6896 7.69333L15.6563 5.83333C16.4063 4.46333 16.7146 3.85 17.9079 3.095C18.4846 2.745 19.1913 2.57 19.9846 2.57C21.5746 2.57 22.8146 3.5 23.3446 4.24833C23.6079 4.64667 23.9196 5.17667 24.3146 5.83667L25.2446 7.65167L25.3779 7.91667C28.7796 14.59 31.7463 20.5967 34.1763 25.9067L34.2196 25.9483L35.1079 27.9817L35.6379 29.255C36.0429 30.2767 36.1279 31.2917 35.9929 32.3517L36.0029 32.3583ZM38.0363 28.375C37.7263 27.4033 37.1946 26.2567 36.5363 24.885V24.835C33.3879 18.1583 30.4663 12.155 27.6913 6.76167L27.5063 6.49C25.5279 2.435 24.1129 0 20.0013 0C15.9346 0 14.2079 2.825 12.4429 6.49667L12.3079 6.76333C9.52627 12.1567 6.60627 18.1683 3.4696 24.8417V24.93L2.53793 26.9633C2.18793 27.8033 2.0096 28.2433 1.96293 28.375C-0.287068 34.5667 4.35127 40 9.96627 40C10.0113 40 10.1863 40 10.4079 39.955H11.0279C13.9446 39.6 16.9513 37.7467 20.0013 34.4267C23.0496 37.7417 26.0596 39.6 28.9713 39.955H29.5913C29.8129 40 29.9896 40 30.0329 40C35.6496 40.005 40.2863 34.565 38.0363 28.375Z" fill="black"/>
</g>
<defs>
<clipPath id="clip0_991_10004">
<rect width="40" height="40" fill="white"/>
</clipPath>
</defs>
</svg>
