<svg width="38" height="38" viewBox="0 0 38 38" fill="none" xmlns="http://www.w3.org/2000/svg">
<path d="M32.9287 5.23126V1.75586" stroke="black" stroke-width="2.5" stroke-linecap="round" stroke-linejoin="round"/>
<path d="M29.6123 14.5169C29.6123 16.2678 31.0184 16.8515 32.9285 16.8515C34.8387 16.8515 36.2447 16.8515 36.2447 14.5169C36.2447 11.0415 29.6123 11.0415 29.6123 7.56606C29.6123 5.23145 31.0184 5.23145 32.9285 5.23145C34.8387 5.23145 36.2447 6.10693 36.2447 7.56606" stroke="black" stroke-width="2.5" stroke-linecap="round" stroke-linejoin="round"/>
<path d="M32.9287 16.8511V20.3265" stroke="black" stroke-width="2.5" stroke-linecap="round" stroke-linejoin="round"/>
<path d="M7.06181 9.71484H4.40884C2.94364 9.71484 1.75586 10.9026 1.75586 12.3678V24.3062C1.75586 25.7714 2.94364 26.9592 4.40884 26.9592H7.06181C8.527 26.9592 9.71479 25.7714 9.71479 24.3062V12.3678C9.71479 10.9026 8.527 9.71484 7.06181 9.71484Z" stroke="black" stroke-width="2.5" stroke-linecap="round" stroke-linejoin="round"/>
<path d="M5.73535 26.959V30.9384" stroke="black" stroke-width="2.5" stroke-linecap="round" stroke-linejoin="round"/>
<path d="M5.73535 9.71479V1.75586" stroke="black" stroke-width="2.5" stroke-linecap="round" stroke-linejoin="round"/>
<path d="M21.6536 20.3267H19.0006C17.5354 20.3267 16.3477 21.5145 16.3477 22.9796V26.9591C16.3477 28.4243 17.5354 29.6121 19.0006 29.6121H21.6536C23.1188 29.6121 24.3066 28.4243 24.3066 26.9591V22.9796C24.3066 21.5145 23.1188 20.3267 21.6536 20.3267Z" stroke="black" stroke-width="2.5" stroke-linecap="round" stroke-linejoin="round"/>
<path d="M20.3271 29.6123V36.2447" stroke="black" stroke-width="2.5" stroke-linecap="round" stroke-linejoin="round"/>
<path d="M20.3271 20.3269V11.0415" stroke="black" stroke-width="2.5" stroke-linecap="round" stroke-linejoin="round"/>
</svg>
