<svg width="40" height="40" viewBox="0 0 40 40" fill="none" xmlns="http://www.w3.org/2000/svg">
<path d="M14.1406 28.2031H4.76562C4.14403 28.2031 3.54787 28.45 3.10834 28.8895C2.6688 29.3291 2.42188 29.9253 2.42188 30.5469V37.5781H14.1406V28.2031Z" stroke="black" stroke-width="2" stroke-linecap="round" stroke-linejoin="round"/>
<path d="M35.2344 28.2031H25.8594V37.5781H37.5781V30.5469C37.5781 29.9253 37.3312 29.3291 36.8917 28.8895C36.4522 28.45 35.8559 28.2031 35.2344 28.2031Z" stroke="black" stroke-width="2" stroke-linecap="round" stroke-linejoin="round"/>
<path d="M23.5156 18.8281H16.4844C15.8628 18.8281 15.2666 19.075 14.8271 19.5145C14.3876 19.9541 14.1406 20.5503 14.1406 21.1719V37.5781H25.8594V21.1719C25.8594 20.5503 25.6125 19.9541 25.173 19.5145C24.7334 19.075 24.1372 18.8281 23.5156 18.8281Z" stroke="black" stroke-width="2" stroke-linecap="round" stroke-linejoin="round"/>
<path d="M15.8984 6.52344C15.8984 7.61123 16.3306 8.65448 17.0997 9.42369C17.8689 10.1929 18.9122 10.625 20 10.625C21.0878 10.625 22.1311 10.1929 22.9003 9.42369C23.6694 8.65448 24.1016 7.61123 24.1016 6.52344C24.1016 5.43564 23.6694 4.39239 22.9003 3.62319C22.1311 2.854 21.0878 2.42188 20 2.42188C18.9122 2.42188 17.8689 2.854 17.0997 3.62319C16.3306 4.39239 15.8984 5.43564 15.8984 6.52344Z" stroke="black" stroke-width="2" stroke-linecap="round" stroke-linejoin="round"/>
<path d="M25.0761 14.1407C24.45 13.4055 23.6716 12.815 22.7949 12.4101C21.918 12.0051 20.9638 11.7954 19.998 11.7954C19.0322 11.7954 18.078 12.0051 17.2013 12.4101C16.3245 12.815 15.5461 13.4055 14.9199 14.1407" stroke="black" stroke-width="2" stroke-linecap="round" stroke-linejoin="round"/>
<path d="M28.4004 17.0703C28.4004 18.1581 28.8324 19.2014 29.6016 19.9706C30.3709 20.7397 31.4141 21.1719 32.502 21.1719C33.5898 21.1719 34.6329 20.7397 35.4021 19.9706C36.1713 19.2014 36.6035 18.1581 36.6035 17.0703C36.6035 15.9825 36.1713 14.9393 35.4021 14.1701C34.6329 13.4009 33.5898 12.9688 32.502 12.9688C31.4141 12.9688 30.3709 13.4009 29.6016 14.1701C28.8324 14.9393 28.4004 15.9825 28.4004 17.0703Z" stroke="black" stroke-width="2" stroke-linecap="round" stroke-linejoin="round"/>
<path d="M37.5781 24.6875C36.7348 23.6961 35.6192 22.9735 34.3695 22.6094C33.1198 22.2454 31.7908 22.2557 30.5469 22.6391" stroke="black" stroke-width="2" stroke-linecap="round" stroke-linejoin="round"/>
<path d="M3.39648 17.0703C3.39648 18.1581 3.82863 19.2014 4.59781 19.9706C5.367 20.7397 6.41025 21.1719 7.49805 21.1719C8.58586 21.1719 9.62911 20.7397 10.3983 19.9706C11.1675 19.2014 11.5996 18.1581 11.5996 17.0703C11.5996 15.9825 11.1675 14.9393 10.3983 14.1701C9.62911 13.4009 8.58586 12.9688 7.49805 12.9688C6.41025 12.9688 5.367 13.4009 4.59781 14.1701C3.82863 14.9393 3.39648 15.9825 3.39648 17.0703Z" stroke="black" stroke-width="2" stroke-linecap="round" stroke-linejoin="round"/>
<path d="M2.42188 24.6875C3.04938 23.9539 3.82805 23.3647 4.70455 22.9602C5.58105 22.5556 6.53466 22.3453 7.5 22.3438C8.15945 22.3442 8.81513 22.4433 9.44531 22.6375" stroke="black" stroke-width="2" stroke-linecap="round" stroke-linejoin="round"/>
</svg>
