<svg width="40" height="40" viewBox="0 0 40 40" fill="none" xmlns="http://www.w3.org/2000/svg">
<path d="M4.76562 7.10937C4.76562 8.35258 5.25948 9.54486 6.13856 10.4239C7.01764 11.303 8.20992 11.7969 9.45312 11.7969C10.6963 11.7969 11.8886 11.303 12.7677 10.4239C13.6468 9.54486 14.1406 8.35258 14.1406 7.10937C14.1406 5.86617 13.6468 4.67389 12.7677 3.79481C11.8886 2.91573 10.6963 2.42188 9.45312 2.42188C8.20992 2.42188 7.01764 2.91573 6.13856 3.79481C5.25948 4.67389 4.76562 5.86617 4.76562 7.10937Z" stroke="black" stroke-width="2" stroke-linecap="round" stroke-linejoin="round"/>
<path d="M9.45312 14.1406V23.5156" stroke="black" stroke-width="2" stroke-linecap="round" stroke-linejoin="round"/>
<path d="M16.3906 20.0003C16.1032 18.2573 15.1702 16.6865 13.7772 15.6001C12.3843 14.5138 10.6335 13.9915 8.87311 14.1373C7.11267 14.283 5.47158 15.086 4.27623 16.3866C3.08089 17.6871 2.41888 19.39 2.42189 21.1565V25.844H4.76564L5.93751 37.5784H12.9688L14.1406 25.8596" stroke="black" stroke-width="2" stroke-linecap="round" stroke-linejoin="round"/>
<path d="M20.3906 23.5156H36.0156C36.0156 23.5156 37.5781 23.5156 37.5781 25.0781V36.0156C37.5781 36.0156 37.5781 37.5781 36.0156 37.5781H20.3906C20.3906 37.5781 18.8281 37.5781 18.8281 36.0156V25.0781C18.8281 25.0781 18.8281 23.5156 20.3906 23.5156Z" stroke="black" stroke-width="2" stroke-linecap="round" stroke-linejoin="round"/>
<path d="M18.8281 29.375H37.5781" stroke="black" stroke-width="2" stroke-linecap="round" stroke-linejoin="round"/>
<path d="M28.2031 29.375V32.5" stroke="black" stroke-width="2" stroke-linecap="round" stroke-linejoin="round"/>
<path d="M24.6875 23.5156V21.5625C24.6875 20.6302 25.058 19.7359 25.7172 19.0766C26.3766 18.4173 27.2708 18.0469 28.2031 18.0469C29.1355 18.0469 30.0297 18.4173 30.6891 19.0766C31.3483 19.7359 31.7187 20.6302 31.7187 21.5625V23.5156" stroke="black" stroke-width="2" stroke-linecap="round" stroke-linejoin="round"/>
</svg>
