<svg width="40" height="40" viewBox="0 0 40 40" fill="none" xmlns="http://www.w3.org/2000/svg">
<path d="M28.1106 7.7422H25.5043C25.1037 7.74048 24.715 7.87881 24.4056 8.13328C24.0961 8.38773 23.8851 8.74234 23.8093 9.1358C23.7336 9.52925 23.7976 9.93681 23.9904 10.288C24.1832 10.6393 24.4928 10.9121 24.8653 11.0594L27.5106 12.1172C27.882 12.265 28.1903 12.5377 28.3823 12.8882C28.5743 13.2388 28.6382 13.6453 28.5629 14.0378C28.4876 14.4304 28.2779 14.7844 27.9698 15.039C27.6617 15.2936 27.2745 15.4329 26.8747 15.4328H24.2653" stroke="black" stroke-width="2" stroke-linecap="round" stroke-linejoin="round"/>
<path d="M26.1895 7.74238V5.87988" stroke="black" stroke-width="2" stroke-linecap="round" stroke-linejoin="round"/>
<path d="M26.1895 17.0951V15.4326" stroke="black" stroke-width="2" stroke-linecap="round" stroke-linejoin="round"/>
<path d="M17.377 11.5874C17.377 13.9246 18.3055 16.1661 19.9582 17.8188C21.6109 19.4714 23.8523 20.3999 26.1895 20.3999C28.5268 20.3999 30.7682 19.4714 32.4209 17.8188C34.0735 16.1661 35.002 13.9246 35.002 11.5874C35.002 9.25018 34.0735 7.00869 32.4209 5.35602C30.7682 3.70337 28.5268 2.7749 26.1895 2.7749C23.8523 2.7749 21.6109 3.70337 19.9582 5.35602C18.3055 7.00869 17.377 9.25018 17.377 11.5874Z" stroke="black" stroke-width="2" stroke-linecap="round" stroke-linejoin="round"/>
<path d="M24.9996 28.4687L34.7136 25.3656L34.7808 25.3468C35.3272 25.2271 35.8986 25.3103 36.3882 25.5809C36.8777 25.8515 37.2521 26.291 37.4413 26.8175C37.6305 27.3437 37.6218 27.9211 37.4166 28.4414C37.2113 28.9618 36.8238 29.3896 36.3261 29.6453C17.3621 39.464 22.1996 39.0203 2.41992 32.4312" stroke="black" stroke-width="2" stroke-linecap="round" stroke-linejoin="round"/>
<path d="M2.42188 20.3998H5.85937C9.85486 20.359 13.7308 21.7617 16.775 24.3498L16.8391 24.406H23.2453C23.8844 24.406 24.4972 24.6598 24.9491 25.1117C25.4008 25.5635 25.6547 26.1764 25.6547 26.8154C25.6552 27.4524 25.4031 28.0639 24.9539 28.5157C24.5048 28.9674 23.8948 29.2231 23.2578 29.2264L13.5172 29.2748" stroke="black" stroke-width="2" stroke-linecap="round" stroke-linejoin="round"/>
</svg>
