<svg width="40" height="40" viewBox="0 0 40 40" fill="none" xmlns="http://www.w3.org/2000/svg">
<path d="M19.916 21.1719V37.5781" stroke="black" stroke-width="2" stroke-linecap="round" stroke-linejoin="round"/>
<path d="M19.9158 37.5782C19.9158 37.5782 18.1502 32.7485 10.0596 27.6001" stroke="black" stroke-width="2" stroke-linecap="round" stroke-linejoin="round"/>
<path d="M6.96993 30.9376C8.57305 32.6813 11.0981 33.3173 12.6309 30.0564C16.4231 27.8126 14.8684 24.972 12.7137 23.4845C11.1218 22.7085 9.3696 22.3184 7.59891 22.3456C5.82824 22.3728 4.08884 22.8163 2.52148 23.6407C5.10899 26.1485 4.97618 28.7642 6.96993 30.9376Z" stroke="black" stroke-width="2" stroke-linecap="round" stroke-linejoin="round"/>
<path d="M19.916 37.5782C19.916 37.5782 21.6816 32.7485 29.7738 27.6001" stroke="black" stroke-width="2" stroke-linecap="round" stroke-linejoin="round"/>
<path d="M32.8606 30.9379C31.259 32.6816 28.7325 33.3176 27.2012 30.0566C23.409 27.8097 24.9637 24.9707 27.1168 23.4832C28.709 22.7074 30.4615 22.3174 32.2323 22.3446C34.0032 22.3716 35.7429 22.8152 37.3106 23.6394C34.7215 26.1488 34.8559 28.7644 32.8606 30.9379Z" stroke="black" stroke-width="2" stroke-linecap="round" stroke-linejoin="round"/>
<path d="M22.259 7.10939H19.0824C18.5946 7.10782 18.1215 7.27656 17.7448 7.58648C17.3679 7.8964 17.1112 8.32807 17.0185 8.80707C16.926 9.28607 17.0034 9.78235 17.2376 10.2104C17.4718 10.6383 17.8479 10.9712 18.3012 11.1516L21.5246 12.4422C21.9763 12.6239 22.3505 12.9571 22.5835 13.3847C22.8163 13.8122 22.893 14.3074 22.8007 14.7854C22.7084 15.2634 22.4526 15.6943 22.0771 16.0043C21.7018 16.3143 21.2302 16.484 20.7434 16.4844H17.5715" stroke="black" stroke-width="2" stroke-linecap="round" stroke-linejoin="round"/>
<path d="M19.916 7.10937V5.9375" stroke="black" stroke-width="2" stroke-linecap="round" stroke-linejoin="round"/>
<path d="M19.916 17.6562V16.4844" stroke="black" stroke-width="2" stroke-linecap="round" stroke-linejoin="round"/>
<path d="M10.541 11.7969C10.541 13.028 10.7835 14.2471 11.2547 15.3845C11.7258 16.522 12.4163 17.5555 13.2869 18.4259C14.1574 19.2966 15.1909 19.987 16.3284 20.4583C17.4657 20.9294 18.685 21.1719 19.916 21.1719C21.1471 21.1719 22.3662 20.9294 23.5037 20.4583C24.641 19.987 25.6746 19.2966 26.5451 18.4259C27.4157 17.5555 28.1062 16.522 28.5775 15.3845C29.0485 14.2471 29.291 13.028 29.291 11.7969C29.291 9.31047 28.3032 6.92591 26.5451 5.16775C24.787 3.40959 22.4025 2.42188 19.916 2.42188C17.4296 2.42188 15.045 3.40959 13.2869 5.16775C11.5287 6.92591 10.541 9.31047 10.541 11.7969Z" stroke="black" stroke-width="2" stroke-linecap="round" stroke-linejoin="round"/>
</svg>
